<svg width="885" height="1003" viewBox="0 0 885 1003" fill="none" xmlns="http://www.w3.org/2000/svg">
<g filter="url(#filter0_f_2217_12237)">
<path d="M364.348 840.582C249.832 837.988 159.296 734.504 162.129 609.443C164.962 484.383 260.092 385.105 374.607 387.699C489.122 390.293 668.862 582.803 666.029 707.863C663.197 832.924 478.863 843.176 364.348 840.582Z" fill="#FFCAB2"/>
</g>
<g filter="url(#filter1_f_2217_12237)">
<path d="M699.248 231.115C801.589 282.562 839.006 414.872 782.822 526.637C726.637 638.402 598.127 687.299 495.786 635.852C393.445 584.405 313.614 333.419 369.799 221.654C425.984 109.889 596.907 179.668 699.248 231.115Z" fill="#FFD67C" fill-opacity="0.48"/>
</g>
<defs>
<filter id="filter0_f_2217_12237" x="0.564453" y="226.148" width="826.998" height="776.258" filterUnits="userSpaceOnUse" color-interpolation-filters="sRGB">
<feFlood flood-opacity="0" result="BackgroundImageFix"/>
<feBlend mode="normal" in="SourceGraphic" in2="BackgroundImageFix" result="shape"/>
<feGaussianBlur stdDeviation="80.75" result="effect1_foregroundBlur_2217_12237"/>
</filter>
<filter id="filter1_f_2217_12237" x="189.734" y="0.367188" width="780.715" height="817.449" filterUnits="userSpaceOnUse" color-interpolation-filters="sRGB">
<feFlood flood-opacity="0" result="BackgroundImageFix"/>
<feBlend mode="normal" in="SourceGraphic" in2="BackgroundImageFix" result="shape"/>
<feGaussianBlur stdDeviation="80.75" result="effect1_foregroundBlur_2217_12237"/>
</filter>
</defs>
</svg>
