<svg width="389" height="341" viewBox="0 0 389 341" fill="none" xmlns="http://www.w3.org/2000/svg">
<rect width="234" height="211" rx="10" fill="white" fill-opacity="0.44"/>
<rect x="117" y="340.484" width="181.484" height="271.8" rx="10" transform="rotate(-89.9381 117 340.484)" fill="white" fill-opacity="0.44"/>
<g clip-path="url(#clip0_2226_12199)">
<rect x="66" y="71" width="247" height="198" fill="url(#paint0_linear_2226_12199)"/>
<g filter="url(#filter0_d_2226_12199)">
<rect x="159" y="125" width="217" height="45" rx="22.5" fill="white" fill-opacity="0.22" shape-rendering="crispEdges"/>
</g>
<g filter="url(#filter1_d_2226_12199)">
<rect x="163" y="130" width="209" height="36" rx="18" fill="white" fill-opacity="0.22" shape-rendering="crispEdges"/>
<rect x="163.5" y="130.5" width="208" height="35" rx="17.5" stroke="url(#paint1_linear_2226_12199)" stroke-opacity="0.45" shape-rendering="crispEdges"/>
</g>
<g filter="url(#filter2_d_2226_12199)">
<rect x="136" y="159" width="217" height="45" rx="22.5" fill="#F8EBEB"/>
</g>
<g filter="url(#filter3_d_2226_12199)">
<rect x="140" y="164" width="209" height="36" rx="18" fill="white" fill-opacity="0.22" shape-rendering="crispEdges"/>
<rect x="140.5" y="164.5" width="208" height="35" rx="17.5" stroke="url(#paint2_linear_2226_12199)" stroke-opacity="0.45" shape-rendering="crispEdges"/>
</g>
<g filter="url(#filter4_d_2226_12199)">
<rect x="116" y="193" width="217" height="45" rx="22.5" fill="white"/>
</g>
<g filter="url(#filter5_d_2226_12199)">
<rect x="120" y="198" width="209" height="36" rx="18" fill="white"/>
<rect x="120.5" y="198.5" width="208" height="35" rx="17.5" stroke="url(#paint3_linear_2226_12199)"/>
</g>
<path d="M153.91 185.88C153.55 185.88 153.2 185.833 152.86 185.74C152.527 185.653 152.223 185.51 151.95 185.31C151.897 185.277 151.86 185.233 151.84 185.18C151.827 185.127 151.827 185.073 151.84 185.02C151.853 184.973 151.877 184.93 151.91 184.89C151.95 184.85 151.993 184.827 152.04 184.82C152.093 184.813 152.147 184.823 152.2 184.85C152.493 185.043 152.773 185.177 153.04 185.25C153.313 185.33 153.597 185.37 153.89 185.37C154.377 185.37 154.747 185.233 155 184.96C155.253 184.693 155.38 184.31 155.38 183.81V182.57H155.48C155.38 182.983 155.167 183.307 154.84 183.54C154.513 183.773 154.127 183.89 153.68 183.89C153.233 183.89 152.847 183.79 152.52 183.59C152.193 183.383 151.94 183.1 151.76 182.74C151.587 182.373 151.5 181.95 151.5 181.47C151.5 181.11 151.55 180.783 151.65 180.49C151.75 180.197 151.893 179.943 152.08 179.73C152.273 179.517 152.503 179.353 152.77 179.24C153.037 179.12 153.34 179.06 153.68 179.06C154.127 179.06 154.513 179.18 154.84 179.42C155.167 179.653 155.377 179.97 155.47 180.37L155.37 180.43V179.4C155.37 179.293 155.397 179.213 155.45 179.16C155.503 179.107 155.577 179.08 155.67 179.08C155.77 179.08 155.843 179.107 155.89 179.16C155.943 179.213 155.97 179.293 155.97 179.4V183.72C155.97 184.433 155.797 184.97 155.45 185.33C155.103 185.697 154.59 185.88 153.91 185.88ZM153.75 183.37C154.083 183.37 154.37 183.293 154.61 183.14C154.857 182.98 155.047 182.76 155.18 182.48C155.313 182.193 155.38 181.857 155.38 181.47C155.38 180.89 155.233 180.43 154.94 180.09C154.647 179.75 154.25 179.58 153.75 179.58C153.417 179.58 153.127 179.657 152.88 179.81C152.633 179.963 152.443 180.183 152.31 180.47C152.183 180.75 152.12 181.083 152.12 181.47C152.12 182.05 152.267 182.513 152.56 182.86C152.853 183.2 153.25 183.37 153.75 183.37ZM159.691 184.08C159.191 184.08 158.761 183.98 158.401 183.78C158.041 183.58 157.765 183.293 157.571 182.92C157.378 182.547 157.281 182.103 157.281 181.59C157.281 181.083 157.378 180.643 157.571 180.27C157.765 179.89 158.031 179.593 158.371 179.38C158.718 179.167 159.115 179.06 159.561 179.06C159.888 179.06 160.175 179.117 160.421 179.23C160.675 179.337 160.888 179.493 161.061 179.7C161.241 179.9 161.378 180.147 161.471 180.44C161.565 180.727 161.611 181.053 161.611 181.42C161.611 181.513 161.585 181.583 161.531 181.63C161.485 181.677 161.418 181.7 161.331 181.7H157.721V181.25H161.231L161.071 181.38C161.071 180.993 161.015 180.667 160.901 180.4C160.788 180.127 160.618 179.917 160.391 179.77C160.171 179.623 159.898 179.55 159.571 179.55C159.205 179.55 158.895 179.637 158.641 179.81C158.388 179.977 158.198 180.21 158.071 180.51C157.945 180.803 157.881 181.143 157.881 181.53V181.58C157.881 182.22 158.038 182.713 158.351 183.06C158.665 183.4 159.105 183.57 159.671 183.57C159.918 183.57 160.155 183.537 160.381 183.47C160.615 183.403 160.841 183.29 161.061 183.13C161.128 183.083 161.191 183.06 161.251 183.06C161.318 183.06 161.371 183.077 161.411 183.11C161.458 183.143 161.488 183.187 161.501 183.24C161.521 183.287 161.518 183.34 161.491 183.4C161.471 183.453 161.428 183.503 161.361 183.55C161.148 183.723 160.891 183.857 160.591 183.95C160.291 184.037 159.991 184.08 159.691 184.08ZM163.165 184.06C163.065 184.06 162.988 184.033 162.935 183.98C162.881 183.927 162.855 183.85 162.855 183.75V179.4C162.855 179.293 162.881 179.213 162.935 179.16C162.988 179.107 163.065 179.08 163.165 179.08C163.258 179.08 163.328 179.107 163.375 179.16C163.428 179.213 163.455 179.293 163.455 179.4V180.34L163.345 180.28C163.478 179.88 163.705 179.577 164.025 179.37C164.351 179.163 164.725 179.06 165.145 179.06C165.531 179.06 165.851 179.13 166.105 179.27C166.365 179.403 166.558 179.61 166.685 179.89C166.811 180.17 166.875 180.52 166.875 180.94V183.75C166.875 183.85 166.848 183.927 166.795 183.98C166.741 184.033 166.668 184.06 166.575 184.06C166.475 184.06 166.398 184.033 166.345 183.98C166.291 183.927 166.265 183.85 166.265 183.75V180.99C166.265 180.503 166.168 180.15 165.975 179.93C165.781 179.703 165.475 179.59 165.055 179.59C164.575 179.59 164.188 179.74 163.895 180.04C163.608 180.333 163.465 180.73 163.465 181.23V183.75C163.465 183.957 163.365 184.06 163.165 184.06ZM170.56 184.08C170.06 184.08 169.63 183.98 169.27 183.78C168.91 183.58 168.634 183.293 168.44 182.92C168.247 182.547 168.15 182.103 168.15 181.59C168.15 181.083 168.247 180.643 168.44 180.27C168.634 179.89 168.9 179.593 169.24 179.38C169.587 179.167 169.984 179.06 170.43 179.06C170.757 179.06 171.044 179.117 171.29 179.23C171.544 179.337 171.757 179.493 171.93 179.7C172.11 179.9 172.247 180.147 172.34 180.44C172.434 180.727 172.48 181.053 172.48 181.42C172.48 181.513 172.454 181.583 172.4 181.63C172.354 181.677 172.287 181.7 172.2 181.7H168.59V181.25H172.1L171.94 181.38C171.94 180.993 171.884 180.667 171.77 180.4C171.657 180.127 171.487 179.917 171.26 179.77C171.04 179.623 170.767 179.55 170.44 179.55C170.074 179.55 169.764 179.637 169.51 179.81C169.257 179.977 169.067 180.21 168.94 180.51C168.814 180.803 168.75 181.143 168.75 181.53V181.58C168.75 182.22 168.907 182.713 169.22 183.06C169.534 183.4 169.974 183.57 170.54 183.57C170.787 183.57 171.024 183.537 171.25 183.47C171.484 183.403 171.71 183.29 171.93 183.13C171.997 183.083 172.06 183.06 172.12 183.06C172.187 183.06 172.24 183.077 172.28 183.11C172.327 183.143 172.357 183.187 172.37 183.24C172.39 183.287 172.387 183.34 172.36 183.4C172.34 183.453 172.297 183.503 172.23 183.55C172.017 183.723 171.76 183.857 171.46 183.95C171.16 184.037 170.86 184.08 170.56 184.08ZM174.034 184.06C173.934 184.06 173.857 184.033 173.804 183.98C173.75 183.927 173.724 183.85 173.724 183.75V179.4C173.724 179.293 173.75 179.213 173.804 179.16C173.857 179.107 173.934 179.08 174.034 179.08C174.127 179.08 174.197 179.107 174.244 179.16C174.297 179.213 174.324 179.293 174.324 179.4V180.29H174.224C174.344 179.897 174.557 179.593 174.864 179.38C175.177 179.167 175.55 179.057 175.984 179.05C176.064 179.043 176.13 179.06 176.184 179.1C176.237 179.14 176.264 179.203 176.264 179.29C176.27 179.383 176.25 179.457 176.204 179.51C176.157 179.557 176.08 179.587 175.974 179.6L175.834 179.61C175.36 179.657 174.994 179.813 174.734 180.08C174.474 180.347 174.344 180.707 174.344 181.16V183.75C174.344 183.85 174.317 183.927 174.264 183.98C174.217 184.033 174.14 184.06 174.034 184.06ZM178.593 184.08C178.266 184.08 177.973 184.017 177.713 183.89C177.46 183.763 177.256 183.59 177.103 183.37C176.956 183.15 176.883 182.903 176.883 182.63C176.883 182.27 176.973 181.987 177.153 181.78C177.333 181.573 177.636 181.43 178.063 181.35C178.49 181.263 179.076 181.22 179.823 181.22H180.253V181.67H179.833C179.233 181.67 178.763 181.697 178.423 181.75C178.09 181.797 177.856 181.887 177.723 182.02C177.59 182.153 177.523 182.34 177.523 182.58C177.523 182.88 177.626 183.123 177.833 183.31C178.04 183.497 178.32 183.59 178.673 183.59C178.96 183.59 179.21 183.523 179.423 183.39C179.643 183.25 179.816 183.06 179.943 182.82C180.07 182.58 180.133 182.307 180.133 182V180.86C180.133 180.413 180.043 180.09 179.863 179.89C179.683 179.683 179.396 179.58 179.003 179.58C178.75 179.58 178.503 179.613 178.263 179.68C178.03 179.747 177.78 179.853 177.513 180C177.44 180.04 177.373 180.053 177.313 180.04C177.26 180.027 177.216 180 177.183 179.96C177.156 179.92 177.136 179.873 177.123 179.82C177.116 179.76 177.126 179.703 177.153 179.65C177.18 179.597 177.226 179.553 177.293 179.52C177.573 179.367 177.856 179.253 178.143 179.18C178.436 179.1 178.72 179.06 178.993 179.06C179.386 179.06 179.71 179.127 179.963 179.26C180.223 179.393 180.413 179.593 180.533 179.86C180.66 180.127 180.723 180.47 180.723 180.89V183.75C180.723 183.85 180.7 183.927 180.653 183.98C180.606 184.033 180.536 184.06 180.443 184.06C180.35 184.06 180.276 184.033 180.223 183.98C180.17 183.927 180.143 183.85 180.143 183.75V182.83H180.243C180.183 183.09 180.076 183.313 179.923 183.5C179.77 183.687 179.58 183.83 179.353 183.93C179.126 184.03 178.873 184.08 178.593 184.08ZM184.148 184.08C183.788 184.08 183.488 184.013 183.248 183.88C183.008 183.747 182.828 183.557 182.708 183.31C182.588 183.057 182.528 182.747 182.528 182.38V179.64H181.788C181.701 179.64 181.631 179.62 181.578 179.58C181.524 179.533 181.498 179.47 181.498 179.39C181.498 179.317 181.524 179.26 181.578 179.22C181.631 179.173 181.701 179.15 181.788 179.15H182.528V177.9C182.528 177.793 182.554 177.717 182.608 177.67C182.661 177.617 182.738 177.59 182.838 177.59C182.931 177.59 183.004 177.617 183.058 177.67C183.111 177.717 183.138 177.793 183.138 177.9V179.15H184.488C184.581 179.15 184.651 179.173 184.698 179.22C184.744 179.26 184.768 179.317 184.768 179.39C184.768 179.47 184.744 179.533 184.698 179.58C184.651 179.62 184.581 179.64 184.488 179.64H183.138V182.3C183.138 182.707 183.221 183.017 183.388 183.23C183.554 183.443 183.831 183.55 184.218 183.55C184.351 183.55 184.461 183.537 184.548 183.51C184.641 183.477 184.718 183.46 184.778 183.46C184.824 183.46 184.864 183.48 184.898 183.52C184.938 183.56 184.958 183.623 184.958 183.71C184.958 183.763 184.944 183.817 184.918 183.87C184.898 183.923 184.858 183.957 184.798 183.97C184.724 183.997 184.624 184.02 184.498 184.04C184.371 184.067 184.254 184.08 184.148 184.08ZM186.006 184.04C185.906 184.04 185.83 184.01 185.776 183.95C185.723 183.89 185.696 183.81 185.696 183.71V179.43C185.696 179.323 185.723 179.243 185.776 179.19C185.83 179.137 185.906 179.11 186.006 179.11C186.1 179.11 186.173 179.137 186.226 179.19C186.28 179.243 186.306 179.323 186.306 179.43V183.71C186.306 183.81 186.28 183.89 186.226 183.95C186.18 184.01 186.106 184.04 186.006 184.04ZM186.006 177.9C185.866 177.9 185.756 177.863 185.676 177.79C185.603 177.717 185.566 177.613 185.566 177.48C185.566 177.347 185.603 177.247 185.676 177.18C185.756 177.107 185.866 177.07 186.006 177.07C186.146 177.07 186.253 177.107 186.326 177.18C186.406 177.247 186.446 177.347 186.446 177.48C186.446 177.613 186.406 177.717 186.326 177.79C186.253 177.863 186.146 177.9 186.006 177.9ZM188.223 184.06C188.123 184.06 188.047 184.033 187.993 183.98C187.94 183.927 187.913 183.85 187.913 183.75V179.4C187.913 179.293 187.94 179.213 187.993 179.16C188.047 179.107 188.123 179.08 188.223 179.08C188.317 179.08 188.387 179.107 188.433 179.16C188.487 179.213 188.513 179.293 188.513 179.4V180.34L188.403 180.28C188.537 179.88 188.763 179.577 189.083 179.37C189.41 179.163 189.783 179.06 190.203 179.06C190.59 179.06 190.91 179.13 191.163 179.27C191.423 179.403 191.617 179.61 191.743 179.89C191.87 180.17 191.933 180.52 191.933 180.94V183.75C191.933 183.85 191.907 183.927 191.853 183.98C191.8 184.033 191.727 184.06 191.633 184.06C191.533 184.06 191.457 184.033 191.403 183.98C191.35 183.927 191.323 183.85 191.323 183.75V180.99C191.323 180.503 191.227 180.15 191.033 179.93C190.84 179.703 190.533 179.59 190.113 179.59C189.633 179.59 189.247 179.74 188.953 180.04C188.667 180.333 188.523 180.73 188.523 181.23V183.75C188.523 183.957 188.423 184.06 188.223 184.06ZM195.619 185.88C195.259 185.88 194.909 185.833 194.569 185.74C194.236 185.653 193.932 185.51 193.659 185.31C193.606 185.277 193.569 185.233 193.549 185.18C193.536 185.127 193.536 185.073 193.549 185.02C193.562 184.973 193.586 184.93 193.619 184.89C193.659 184.85 193.702 184.827 193.749 184.82C193.802 184.813 193.856 184.823 193.909 184.85C194.202 185.043 194.482 185.177 194.749 185.25C195.022 185.33 195.306 185.37 195.599 185.37C196.086 185.37 196.456 185.233 196.709 184.96C196.962 184.693 197.089 184.31 197.089 183.81V182.57H197.189C197.089 182.983 196.876 183.307 196.549 183.54C196.222 183.773 195.836 183.89 195.389 183.89C194.942 183.89 194.556 183.79 194.229 183.59C193.902 183.383 193.649 183.1 193.469 182.74C193.296 182.373 193.209 181.95 193.209 181.47C193.209 181.11 193.259 180.783 193.359 180.49C193.459 180.197 193.602 179.943 193.789 179.73C193.982 179.517 194.212 179.353 194.479 179.24C194.746 179.12 195.049 179.06 195.389 179.06C195.836 179.06 196.222 179.18 196.549 179.42C196.876 179.653 197.086 179.97 197.179 180.37L197.079 180.43V179.4C197.079 179.293 197.106 179.213 197.159 179.16C197.212 179.107 197.286 179.08 197.379 179.08C197.479 179.08 197.552 179.107 197.599 179.16C197.652 179.213 197.679 179.293 197.679 179.4V183.72C197.679 184.433 197.506 184.97 197.159 185.33C196.812 185.697 196.299 185.88 195.619 185.88ZM195.459 183.37C195.792 183.37 196.079 183.293 196.319 183.14C196.566 182.98 196.756 182.76 196.889 182.48C197.022 182.193 197.089 181.857 197.089 181.47C197.089 180.89 196.942 180.43 196.649 180.09C196.356 179.75 195.959 179.58 195.459 179.58C195.126 179.58 194.836 179.657 194.589 179.81C194.342 179.963 194.152 180.183 194.019 180.47C193.892 180.75 193.829 181.083 193.829 181.47C193.829 182.05 193.976 182.513 194.269 182.86C194.562 183.2 194.959 183.37 195.459 183.37ZM203.64 184.08C203.28 184.08 202.98 184.013 202.74 183.88C202.5 183.747 202.32 183.557 202.2 183.31C202.08 183.057 202.02 182.747 202.02 182.38V179.64H201.28C201.193 179.64 201.123 179.62 201.07 179.58C201.016 179.533 200.99 179.47 200.99 179.39C200.99 179.317 201.016 179.26 201.07 179.22C201.123 179.173 201.193 179.15 201.28 179.15H202.02V177.9C202.02 177.793 202.046 177.717 202.1 177.67C202.153 177.617 202.23 177.59 202.33 177.59C202.423 177.59 202.496 177.617 202.55 177.67C202.603 177.717 202.63 177.793 202.63 177.9V179.15H203.98C204.073 179.15 204.143 179.173 204.19 179.22C204.236 179.26 204.26 179.317 204.26 179.39C204.26 179.47 204.236 179.533 204.19 179.58C204.143 179.62 204.073 179.64 203.98 179.64H202.63V182.3C202.63 182.707 202.713 183.017 202.88 183.23C203.046 183.443 203.323 183.55 203.71 183.55C203.843 183.55 203.953 183.537 204.04 183.51C204.133 183.477 204.21 183.46 204.27 183.46C204.316 183.46 204.356 183.48 204.39 183.52C204.43 183.56 204.45 183.623 204.45 183.71C204.45 183.763 204.436 183.817 204.41 183.87C204.39 183.923 204.35 183.957 204.29 183.97C204.216 183.997 204.116 184.02 203.99 184.04C203.863 184.067 203.746 184.08 203.64 184.08ZM205.499 184.04C205.399 184.04 205.322 184.01 205.269 183.95C205.215 183.89 205.189 183.81 205.189 183.71V179.43C205.189 179.323 205.215 179.243 205.269 179.19C205.322 179.137 205.399 179.11 205.499 179.11C205.592 179.11 205.665 179.137 205.719 179.19C205.772 179.243 205.799 179.323 205.799 179.43V183.71C205.799 183.81 205.772 183.89 205.719 183.95C205.672 184.01 205.599 184.04 205.499 184.04ZM205.499 177.9C205.359 177.9 205.249 177.863 205.169 177.79C205.095 177.717 205.059 177.613 205.059 177.48C205.059 177.347 205.095 177.247 205.169 177.18C205.249 177.107 205.359 177.07 205.499 177.07C205.639 177.07 205.745 177.107 205.819 177.18C205.899 177.247 205.939 177.347 205.939 177.48C205.939 177.613 205.899 177.717 205.819 177.79C205.745 177.863 205.639 177.9 205.499 177.9ZM209.385 184.08C208.912 184.08 208.505 183.977 208.165 183.77C207.825 183.557 207.562 183.26 207.375 182.88C207.195 182.493 207.105 182.047 207.105 181.54C207.105 181.153 207.155 180.81 207.255 180.51C207.362 180.203 207.512 179.943 207.705 179.73C207.905 179.517 208.145 179.353 208.425 179.24C208.712 179.12 209.032 179.06 209.385 179.06C209.632 179.06 209.885 179.103 210.145 179.19C210.405 179.27 210.642 179.407 210.855 179.6C210.902 179.64 210.932 179.687 210.945 179.74C210.959 179.793 210.955 179.847 210.935 179.9C210.915 179.947 210.885 179.987 210.845 180.02C210.805 180.047 210.755 180.063 210.695 180.07C210.642 180.07 210.585 180.043 210.525 179.99C210.339 179.837 210.149 179.733 209.955 179.68C209.769 179.62 209.585 179.59 209.405 179.59C209.132 179.59 208.892 179.633 208.685 179.72C208.479 179.807 208.302 179.933 208.155 180.1C208.015 180.267 207.909 180.473 207.835 180.72C207.762 180.96 207.725 181.237 207.725 181.55C207.725 182.177 207.869 182.67 208.155 183.03C208.449 183.383 208.865 183.56 209.405 183.56C209.585 183.56 209.769 183.533 209.955 183.48C210.149 183.42 210.339 183.313 210.525 183.16C210.585 183.107 210.642 183.083 210.695 183.09C210.755 183.09 210.805 183.107 210.845 183.14C210.885 183.167 210.912 183.207 210.925 183.26C210.945 183.307 210.949 183.357 210.935 183.41C210.922 183.463 210.892 183.51 210.845 183.55C210.639 183.743 210.405 183.88 210.145 183.96C209.885 184.04 209.632 184.08 209.385 184.08ZM212.305 184.06C212.205 184.06 212.129 184.033 212.075 183.98C212.022 183.927 211.995 183.85 211.995 183.75V177.2C211.995 177.093 212.022 177.017 212.075 176.97C212.129 176.917 212.205 176.89 212.305 176.89C212.399 176.89 212.472 176.917 212.525 176.97C212.579 177.017 212.605 177.093 212.605 177.2V181.35H212.625L214.865 179.3C214.939 179.233 215.002 179.18 215.055 179.14C215.115 179.1 215.192 179.08 215.285 179.08C215.365 179.08 215.429 179.103 215.475 179.15C215.522 179.197 215.542 179.253 215.535 179.32C215.535 179.38 215.502 179.447 215.435 179.52L213.055 181.69V181.3L215.645 183.6C215.725 183.673 215.765 183.747 215.765 183.82C215.772 183.887 215.752 183.943 215.705 183.99C215.659 184.037 215.595 184.06 215.515 184.06C215.429 184.06 215.355 184.04 215.295 184C215.235 183.967 215.162 183.91 215.075 183.83L212.625 181.67H212.605V183.75C212.605 183.957 212.505 184.06 212.305 184.06ZM218.812 184.08C218.312 184.08 217.882 183.98 217.522 183.78C217.162 183.58 216.886 183.293 216.692 182.92C216.499 182.547 216.402 182.103 216.402 181.59C216.402 181.083 216.499 180.643 216.692 180.27C216.886 179.89 217.152 179.593 217.492 179.38C217.839 179.167 218.236 179.06 218.682 179.06C219.009 179.06 219.296 179.117 219.542 179.23C219.796 179.337 220.009 179.493 220.182 179.7C220.362 179.9 220.499 180.147 220.592 180.44C220.686 180.727 220.732 181.053 220.732 181.42C220.732 181.513 220.706 181.583 220.652 181.63C220.606 181.677 220.539 181.7 220.452 181.7H216.842V181.25H220.352L220.192 181.38C220.192 180.993 220.136 180.667 220.022 180.4C219.909 180.127 219.739 179.917 219.512 179.77C219.292 179.623 219.019 179.55 218.692 179.55C218.326 179.55 218.016 179.637 217.762 179.81C217.509 179.977 217.319 180.21 217.192 180.51C217.066 180.803 217.002 181.143 217.002 181.53V181.58C217.002 182.22 217.159 182.713 217.472 183.06C217.786 183.4 218.226 183.57 218.792 183.57C219.039 183.57 219.276 183.537 219.502 183.47C219.736 183.403 219.962 183.29 220.182 183.13C220.249 183.083 220.312 183.06 220.372 183.06C220.439 183.06 220.492 183.077 220.532 183.11C220.579 183.143 220.609 183.187 220.622 183.24C220.642 183.287 220.639 183.34 220.612 183.4C220.592 183.453 220.549 183.503 220.482 183.55C220.269 183.723 220.012 183.857 219.712 183.95C219.412 184.037 219.112 184.08 218.812 184.08ZM223.806 184.08C223.446 184.08 223.146 184.013 222.906 183.88C222.666 183.747 222.486 183.557 222.366 183.31C222.246 183.057 222.186 182.747 222.186 182.38V179.64H221.446C221.359 179.64 221.289 179.62 221.236 179.58C221.182 179.533 221.156 179.47 221.156 179.39C221.156 179.317 221.182 179.26 221.236 179.22C221.289 179.173 221.359 179.15 221.446 179.15H222.186V177.9C222.186 177.793 222.212 177.717 222.266 177.67C222.319 177.617 222.396 177.59 222.496 177.59C222.589 177.59 222.662 177.617 222.716 177.67C222.769 177.717 222.796 177.793 222.796 177.9V179.15H224.146C224.239 179.15 224.309 179.173 224.356 179.22C224.402 179.26 224.426 179.317 224.426 179.39C224.426 179.47 224.402 179.533 224.356 179.58C224.309 179.62 224.239 179.64 224.146 179.64H222.796V182.3C222.796 182.707 222.879 183.017 223.046 183.23C223.212 183.443 223.489 183.55 223.876 183.55C224.009 183.55 224.119 183.537 224.206 183.51C224.299 183.477 224.376 183.46 224.436 183.46C224.482 183.46 224.522 183.48 224.556 183.52C224.596 183.56 224.616 183.623 224.616 183.71C224.616 183.763 224.602 183.817 224.576 183.87C224.556 183.923 224.516 183.957 224.456 183.97C224.382 183.997 224.282 184.02 224.156 184.04C224.029 184.067 223.912 184.08 223.806 184.08Z" fill="black" fill-opacity="0.76"/>
<path d="M146.61 219.08C146.177 219.08 145.8 218.997 145.48 218.83C145.167 218.663 144.927 218.427 144.76 218.12C144.593 217.807 144.51 217.433 144.51 217C144.51 216.487 144.607 216.01 144.8 215.57C144.993 215.123 145.277 214.763 145.65 214.49C146.023 214.217 146.477 214.08 147.01 214.08C147.37 214.08 147.67 214.147 147.91 214.28C148.157 214.407 148.35 214.58 148.49 214.8C148.637 215.02 148.73 215.27 148.77 215.55C148.817 215.83 148.82 216.117 148.78 216.41C148.767 216.503 148.743 216.57 148.71 216.61C148.677 216.643 148.617 216.66 148.53 216.66H144.8L144.86 216.29H148.58L148.39 216.41C148.443 216.05 148.43 215.723 148.35 215.43C148.277 215.137 148.13 214.903 147.91 214.73C147.697 214.55 147.393 214.46 147 214.46C146.58 214.46 146.23 214.557 145.95 214.75C145.677 214.937 145.463 215.177 145.31 215.47C145.157 215.757 145.053 216.053 145 216.36L144.97 216.54C144.863 217.18 144.953 217.7 145.24 218.1C145.533 218.493 145.983 218.69 146.59 218.69C146.87 218.69 147.127 218.657 147.36 218.59C147.593 218.517 147.823 218.397 148.05 218.23C148.11 218.183 148.163 218.16 148.21 218.16C148.257 218.153 148.297 218.163 148.33 218.19C148.363 218.21 148.383 218.24 148.39 218.28C148.403 218.32 148.4 218.367 148.38 218.42C148.36 218.467 148.323 218.51 148.27 218.55C148.05 218.717 147.79 218.847 147.49 218.94C147.197 219.033 146.903 219.08 146.61 219.08ZM149.446 219.06C149.386 219.06 149.339 219.043 149.306 219.01C149.272 218.983 149.256 218.947 149.256 218.9C149.256 218.853 149.272 218.813 149.306 218.78L151.586 216.39L151.566 216.63L150.166 214.45C150.119 214.37 150.099 214.307 150.106 214.26C150.112 214.207 150.132 214.167 150.166 214.14C150.206 214.113 150.242 214.1 150.276 214.1C150.329 214.1 150.372 214.113 150.406 214.14C150.446 214.16 150.479 214.197 150.506 214.25L151.816 216.3H151.706L153.646 214.22C153.686 214.18 153.722 214.15 153.756 214.13C153.789 214.11 153.832 214.1 153.886 214.1C153.946 214.1 153.992 214.117 154.026 214.15C154.059 214.177 154.076 214.213 154.076 214.26C154.076 214.3 154.059 214.34 154.026 214.38L151.936 216.6L151.916 216.41L153.396 218.71C153.449 218.783 153.469 218.847 153.456 218.9C153.449 218.953 153.426 218.993 153.386 219.02C153.352 219.047 153.316 219.06 153.276 219.06C153.229 219.06 153.186 219.047 153.146 219.02C153.112 218.993 153.079 218.957 153.046 218.91L151.656 216.73L151.766 216.75L149.686 218.94C149.646 218.98 149.606 219.01 149.566 219.03C149.532 219.05 149.492 219.06 149.446 219.06ZM154.624 220.86C154.557 220.86 154.507 220.837 154.474 220.79C154.447 220.75 154.441 220.69 154.454 220.61L155.454 214.31C155.467 214.237 155.494 214.183 155.534 214.15C155.574 214.117 155.627 214.1 155.694 214.1C155.761 214.1 155.807 214.123 155.834 214.17C155.867 214.21 155.877 214.27 155.864 214.35L155.714 215.29H155.604C155.777 214.917 156.027 214.623 156.354 214.41C156.681 214.19 157.067 214.08 157.514 214.08C157.894 214.08 158.227 214.163 158.514 214.33C158.801 214.497 159.021 214.733 159.174 215.04C159.334 215.347 159.414 215.713 159.414 216.14C159.414 216.66 159.321 217.143 159.134 217.59C158.954 218.037 158.684 218.397 158.324 218.67C157.964 218.943 157.521 219.08 156.994 219.08C156.587 219.08 156.224 218.977 155.904 218.77C155.584 218.557 155.367 218.227 155.254 217.78H155.324L154.864 220.65C154.857 220.717 154.834 220.767 154.794 220.8C154.754 220.84 154.697 220.86 154.624 220.86ZM157.014 218.69C157.441 218.69 157.801 218.573 158.094 218.34C158.387 218.107 158.607 217.797 158.754 217.41C158.907 217.023 158.984 216.6 158.984 216.14C158.984 215.587 158.847 215.17 158.574 214.89C158.307 214.61 157.934 214.47 157.454 214.47C157.027 214.47 156.667 214.587 156.374 214.82C156.081 215.053 155.857 215.363 155.704 215.75C155.557 216.13 155.484 216.553 155.484 217.02C155.484 217.567 155.617 217.983 155.884 218.27C156.157 218.55 156.534 218.69 157.014 218.69ZM161.698 219.08C161.284 219.08 160.981 218.953 160.788 218.7C160.594 218.447 160.538 218.07 160.618 217.57L161.488 212.1C161.501 212.027 161.528 211.973 161.568 211.94C161.608 211.907 161.661 211.89 161.728 211.89C161.794 211.89 161.841 211.913 161.868 211.96C161.901 212 161.911 212.06 161.898 212.14L161.038 217.57C160.971 217.977 160.998 218.267 161.118 218.44C161.244 218.607 161.464 218.69 161.778 218.69C161.884 218.69 161.964 218.683 162.018 218.67C162.078 218.657 162.121 218.65 162.148 218.65C162.181 218.65 162.208 218.66 162.228 218.68C162.248 218.7 162.258 218.74 162.258 218.8C162.258 218.867 162.234 218.923 162.188 218.97C162.148 219.01 162.091 219.037 162.018 219.05C161.971 219.057 161.914 219.063 161.848 219.07C161.788 219.077 161.738 219.08 161.698 219.08ZM164.732 219.08C164.465 219.08 164.212 219.023 163.972 218.91C163.732 218.79 163.538 218.623 163.392 218.41C163.245 218.197 163.172 217.947 163.172 217.66C163.172 217.32 163.265 217.047 163.452 216.84C163.645 216.633 163.945 216.483 164.352 216.39C164.758 216.297 165.282 216.25 165.922 216.25H166.732L166.672 216.62H166.082C165.462 216.62 164.975 216.653 164.622 216.72C164.268 216.78 164.015 216.887 163.862 217.04C163.715 217.187 163.642 217.387 163.642 217.64C163.642 217.987 163.755 218.25 163.982 218.43C164.215 218.61 164.475 218.7 164.762 218.7C165.028 218.7 165.282 218.637 165.522 218.51C165.768 218.383 165.978 218.2 166.152 217.96C166.325 217.72 166.438 217.43 166.492 217.09L166.692 215.85C166.765 215.397 166.712 215.053 166.532 214.82C166.358 214.587 166.038 214.47 165.572 214.47C165.305 214.47 165.052 214.497 164.812 214.55C164.578 214.603 164.355 214.707 164.142 214.86C164.088 214.9 164.035 214.92 163.982 214.92C163.935 214.92 163.895 214.907 163.862 214.88C163.828 214.853 163.808 214.82 163.802 214.78C163.795 214.74 163.802 214.697 163.822 214.65C163.842 214.603 163.882 214.56 163.942 214.52C164.175 214.367 164.435 214.257 164.722 214.19C165.008 214.117 165.298 214.08 165.592 214.08C165.985 214.08 166.302 214.157 166.542 214.31C166.788 214.457 166.958 214.673 167.052 214.96C167.145 215.24 167.158 215.58 167.092 215.98L166.632 218.85C166.625 218.917 166.602 218.967 166.562 219C166.522 219.04 166.468 219.06 166.402 219.06C166.335 219.06 166.288 219.037 166.262 218.99C166.235 218.943 166.225 218.883 166.232 218.81L166.382 217.84H166.482C166.395 218.12 166.258 218.353 166.072 218.54C165.892 218.72 165.682 218.857 165.442 218.95C165.208 219.037 164.972 219.08 164.732 219.08ZM168.488 219.06C168.422 219.06 168.372 219.04 168.338 219C168.312 218.953 168.305 218.89 168.318 218.81L169.028 214.31C169.042 214.237 169.068 214.183 169.108 214.15C169.148 214.117 169.202 214.1 169.268 214.1C169.335 214.1 169.382 214.123 169.408 214.17C169.442 214.21 169.452 214.27 169.438 214.35L168.728 218.85C168.722 218.917 168.698 218.967 168.658 219C168.618 219.04 168.562 219.06 168.488 219.06ZM169.488 212.84C169.395 212.84 169.322 212.817 169.268 212.77C169.215 212.717 169.188 212.647 169.188 212.56C169.188 212.427 169.225 212.327 169.298 212.26C169.372 212.187 169.472 212.15 169.598 212.15C169.692 212.15 169.765 212.173 169.818 212.22C169.872 212.267 169.898 212.337 169.898 212.43C169.898 212.557 169.862 212.657 169.788 212.73C169.715 212.803 169.615 212.84 169.488 212.84ZM170.618 219.06C170.551 219.06 170.501 219.037 170.468 218.99C170.441 218.937 170.434 218.87 170.448 218.79L171.158 214.31C171.171 214.237 171.198 214.183 171.238 214.15C171.278 214.117 171.331 214.1 171.398 214.1C171.458 214.1 171.501 214.123 171.528 214.17C171.561 214.21 171.571 214.27 171.558 214.35L171.398 215.36H171.288C171.454 214.96 171.704 214.647 172.038 214.42C172.371 214.193 172.774 214.08 173.248 214.08C173.608 214.08 173.908 214.153 174.148 214.3C174.394 214.44 174.568 214.657 174.668 214.95C174.774 215.237 174.791 215.603 174.718 216.05L174.268 218.87C174.261 218.93 174.238 218.977 174.198 219.01C174.158 219.043 174.101 219.06 174.028 219.06C173.961 219.06 173.911 219.04 173.878 219C173.851 218.953 173.844 218.89 173.858 218.81L174.298 216.04C174.384 215.507 174.338 215.113 174.158 214.86C173.978 214.6 173.671 214.47 173.238 214.47C172.664 214.47 172.211 214.643 171.878 214.99C171.551 215.33 171.341 215.787 171.248 216.36L170.858 218.85C170.838 218.99 170.758 219.06 170.618 219.06ZM180.126 219.08C179.799 219.08 179.529 219.017 179.316 218.89C179.102 218.757 178.952 218.57 178.866 218.33C178.779 218.09 178.762 217.803 178.816 217.47L179.286 214.52H178.506C178.439 214.52 178.386 214.507 178.346 214.48C178.306 214.453 178.286 214.417 178.286 214.37C178.286 214.297 178.309 214.243 178.356 214.21C178.402 214.177 178.459 214.16 178.526 214.16H179.336L179.556 212.8C179.569 212.727 179.596 212.673 179.636 212.64C179.676 212.607 179.729 212.59 179.796 212.59C179.862 212.59 179.909 212.613 179.936 212.66C179.969 212.7 179.979 212.76 179.966 212.84L179.756 214.16H181.156C181.229 214.16 181.282 214.173 181.316 214.2C181.356 214.22 181.376 214.257 181.376 214.31C181.376 214.377 181.352 214.43 181.306 214.47C181.266 214.503 181.209 214.52 181.136 214.52H179.696L179.246 217.38C179.172 217.847 179.212 218.183 179.366 218.39C179.526 218.59 179.789 218.69 180.156 218.69C180.316 218.69 180.439 218.677 180.526 218.65C180.612 218.617 180.679 218.6 180.726 218.6C180.766 218.6 180.796 218.613 180.816 218.64C180.842 218.66 180.856 218.697 180.856 218.75C180.856 218.81 180.846 218.86 180.826 218.9C180.812 218.933 180.779 218.96 180.726 218.98C180.659 219.007 180.566 219.03 180.446 219.05C180.332 219.07 180.226 219.08 180.126 219.08ZM181.799 219.06C181.732 219.06 181.682 219.04 181.649 219C181.622 218.953 181.616 218.89 181.629 218.81L182.689 212.1C182.702 212.027 182.729 211.973 182.769 211.94C182.809 211.907 182.862 211.89 182.929 211.89C182.996 211.89 183.042 211.913 183.069 211.96C183.102 212 183.112 212.06 183.099 212.14L182.589 215.36H182.479C182.646 214.96 182.896 214.647 183.229 214.42C183.562 214.193 183.966 214.08 184.439 214.08C184.799 214.08 185.099 214.153 185.339 214.3C185.586 214.44 185.759 214.657 185.859 214.95C185.966 215.237 185.982 215.603 185.909 216.05L185.469 218.85C185.462 218.917 185.436 218.967 185.389 219C185.349 219.04 185.292 219.06 185.219 219.06C185.152 219.06 185.102 219.04 185.069 219C185.042 218.953 185.036 218.89 185.049 218.81L185.489 216.04C185.576 215.507 185.529 215.113 185.349 214.86C185.169 214.6 184.862 214.47 184.429 214.47C183.856 214.47 183.402 214.643 183.069 214.99C182.742 215.33 182.532 215.787 182.439 216.36L182.049 218.85C182.029 218.99 181.946 219.06 181.799 219.06ZM189.266 219.08C188.833 219.08 188.456 218.997 188.136 218.83C187.823 218.663 187.583 218.427 187.416 218.12C187.25 217.807 187.166 217.433 187.166 217C187.166 216.487 187.263 216.01 187.456 215.57C187.65 215.123 187.933 214.763 188.306 214.49C188.68 214.217 189.133 214.08 189.666 214.08C190.026 214.08 190.326 214.147 190.566 214.28C190.813 214.407 191.006 214.58 191.146 214.8C191.293 215.02 191.386 215.27 191.426 215.55C191.473 215.83 191.476 216.117 191.436 216.41C191.423 216.503 191.4 216.57 191.366 216.61C191.333 216.643 191.273 216.66 191.186 216.66H187.456L187.516 216.29H191.236L191.046 216.41C191.1 216.05 191.086 215.723 191.006 215.43C190.933 215.137 190.786 214.903 190.566 214.73C190.353 214.55 190.05 214.46 189.656 214.46C189.236 214.46 188.886 214.557 188.606 214.75C188.333 214.937 188.12 215.177 187.966 215.47C187.813 215.757 187.71 216.053 187.656 216.36L187.626 216.54C187.52 217.18 187.61 217.7 187.896 218.1C188.19 218.493 188.64 218.69 189.246 218.69C189.526 218.69 189.783 218.657 190.016 218.59C190.25 218.517 190.48 218.397 190.706 218.23C190.766 218.183 190.82 218.16 190.866 218.16C190.913 218.153 190.953 218.163 190.986 218.19C191.02 218.21 191.04 218.24 191.046 218.28C191.06 218.32 191.056 218.367 191.036 218.42C191.016 218.467 190.98 218.51 190.926 218.55C190.706 218.717 190.446 218.847 190.146 218.94C189.853 219.033 189.56 219.08 189.266 219.08ZM195.022 219.06C194.955 219.06 194.905 219.04 194.872 219C194.845 218.953 194.838 218.89 194.852 218.81L195.562 214.31C195.575 214.237 195.602 214.183 195.642 214.15C195.682 214.117 195.735 214.1 195.802 214.1C195.868 214.1 195.915 214.123 195.942 214.17C195.975 214.21 195.985 214.27 195.972 214.35L195.262 218.85C195.255 218.917 195.232 218.967 195.192 219C195.152 219.04 195.095 219.06 195.022 219.06ZM196.022 212.84C195.928 212.84 195.855 212.817 195.802 212.77C195.748 212.717 195.722 212.647 195.722 212.56C195.722 212.427 195.758 212.327 195.832 212.26C195.905 212.187 196.005 212.15 196.132 212.15C196.225 212.15 196.298 212.173 196.352 212.22C196.405 212.267 196.432 212.337 196.432 212.43C196.432 212.557 196.395 212.657 196.322 212.73C196.248 212.803 196.148 212.84 196.022 212.84ZM198.671 219.08C198.344 219.08 198.037 219.037 197.751 218.95C197.471 218.863 197.231 218.747 197.031 218.6C196.984 218.567 196.954 218.527 196.941 218.48C196.927 218.433 196.924 218.39 196.931 218.35C196.944 218.31 196.967 218.277 197.001 218.25C197.034 218.223 197.074 218.213 197.121 218.22C197.167 218.22 197.221 218.24 197.281 218.28C197.487 218.427 197.707 218.533 197.941 218.6C198.181 218.66 198.434 218.69 198.701 218.69C199.101 218.69 199.417 218.607 199.651 218.44C199.891 218.273 200.011 218.033 200.011 217.72C200.011 217.52 199.944 217.353 199.811 217.22C199.684 217.087 199.504 216.99 199.271 216.93L198.301 216.67C198.001 216.59 197.761 216.447 197.581 216.24C197.401 216.033 197.311 215.787 197.311 215.5C197.311 215.22 197.387 214.973 197.541 214.76C197.694 214.547 197.907 214.38 198.181 214.26C198.454 214.14 198.767 214.08 199.121 214.08C199.414 214.08 199.694 214.127 199.961 214.22C200.227 214.313 200.444 214.437 200.611 214.59C200.657 214.637 200.687 214.683 200.701 214.73C200.721 214.777 200.724 214.82 200.711 214.86C200.697 214.9 200.674 214.93 200.641 214.95C200.607 214.97 200.567 214.98 200.521 214.98C200.481 214.973 200.434 214.947 200.381 214.9C200.214 214.753 200.024 214.647 199.811 214.58C199.597 214.507 199.364 214.47 199.111 214.47C198.704 214.47 198.374 214.563 198.121 214.75C197.874 214.93 197.751 215.177 197.751 215.49C197.751 215.683 197.807 215.85 197.921 215.99C198.041 216.13 198.221 216.233 198.461 216.3L199.431 216.56C199.744 216.647 199.991 216.783 200.171 216.97C200.357 217.157 200.451 217.397 200.451 217.69C200.451 218.117 200.287 218.457 199.961 218.71C199.634 218.957 199.204 219.08 198.671 219.08ZM203.417 219.08C203.09 219.08 202.783 219.037 202.497 218.95C202.217 218.863 201.977 218.747 201.777 218.6C201.73 218.567 201.7 218.527 201.687 218.48C201.673 218.433 201.67 218.39 201.677 218.35C201.69 218.31 201.713 218.277 201.747 218.25C201.78 218.223 201.82 218.213 201.867 218.22C201.913 218.22 201.967 218.24 202.027 218.28C202.233 218.427 202.453 218.533 202.687 218.6C202.927 218.66 203.18 218.69 203.447 218.69C203.847 218.69 204.163 218.607 204.397 218.44C204.637 218.273 204.757 218.033 204.757 217.72C204.757 217.52 204.69 217.353 204.557 217.22C204.43 217.087 204.25 216.99 204.017 216.93L203.047 216.67C202.747 216.59 202.507 216.447 202.327 216.24C202.147 216.033 202.057 215.787 202.057 215.5C202.057 215.22 202.133 214.973 202.287 214.76C202.44 214.547 202.653 214.38 202.927 214.26C203.2 214.14 203.513 214.08 203.867 214.08C204.16 214.08 204.44 214.127 204.707 214.22C204.973 214.313 205.19 214.437 205.357 214.59C205.403 214.637 205.433 214.683 205.447 214.73C205.467 214.777 205.47 214.82 205.457 214.86C205.443 214.9 205.42 214.93 205.387 214.95C205.353 214.97 205.313 214.98 205.267 214.98C205.227 214.973 205.18 214.947 205.127 214.9C204.96 214.753 204.77 214.647 204.557 214.58C204.343 214.507 204.11 214.47 203.857 214.47C203.45 214.47 203.12 214.563 202.867 214.75C202.62 214.93 202.497 215.177 202.497 215.49C202.497 215.683 202.553 215.85 202.667 215.99C202.787 216.13 202.967 216.233 203.207 216.3L204.177 216.56C204.49 216.647 204.737 216.783 204.917 216.97C205.103 217.157 205.197 217.397 205.197 217.69C205.197 218.117 205.033 218.457 204.707 218.71C204.38 218.957 203.95 219.08 203.417 219.08ZM208.153 219.08C207.806 219.08 207.513 219.01 207.273 218.87C207.033 218.723 206.863 218.507 206.763 218.22C206.663 217.927 206.646 217.557 206.713 217.11L207.153 214.31C207.166 214.237 207.193 214.183 207.233 214.15C207.273 214.117 207.326 214.1 207.393 214.1C207.46 214.1 207.51 214.123 207.543 214.17C207.576 214.21 207.586 214.27 207.573 214.35L207.133 217.12C207.046 217.647 207.09 218.04 207.263 218.3C207.443 218.56 207.743 218.69 208.163 218.69C208.716 218.69 209.156 218.517 209.483 218.17C209.81 217.823 210.016 217.367 210.103 216.8L210.493 214.31C210.506 214.237 210.533 214.183 210.573 214.15C210.613 214.117 210.666 214.1 210.733 214.1C210.8 214.1 210.85 214.12 210.883 214.16C210.916 214.193 210.926 214.247 210.913 214.32L210.193 218.85C210.173 218.99 210.096 219.06 209.963 219.06C209.896 219.06 209.846 219.04 209.813 219C209.786 218.953 209.78 218.89 209.793 218.81L209.953 217.8H210.063C209.91 218.2 209.666 218.513 209.333 218.74C209 218.967 208.606 219.08 208.153 219.08ZM214.022 219.08C213.589 219.08 213.212 218.997 212.892 218.83C212.579 218.663 212.339 218.427 212.172 218.12C212.005 217.807 211.922 217.433 211.922 217C211.922 216.487 212.019 216.01 212.212 215.57C212.405 215.123 212.689 214.763 213.062 214.49C213.435 214.217 213.889 214.08 214.422 214.08C214.782 214.08 215.082 214.147 215.322 214.28C215.569 214.407 215.762 214.58 215.902 214.8C216.049 215.02 216.142 215.27 216.182 215.55C216.229 215.83 216.232 216.117 216.192 216.41C216.179 216.503 216.155 216.57 216.122 216.61C216.089 216.643 216.029 216.66 215.942 216.66H212.212L212.272 216.29H215.992L215.802 216.41C215.855 216.05 215.842 215.723 215.762 215.43C215.689 215.137 215.542 214.903 215.322 214.73C215.109 214.55 214.805 214.46 214.412 214.46C213.992 214.46 213.642 214.557 213.362 214.75C213.089 214.937 212.875 215.177 212.722 215.47C212.569 215.757 212.465 216.053 212.412 216.36L212.382 216.54C212.275 217.18 212.365 217.7 212.652 218.1C212.945 218.493 213.395 218.69 214.002 218.69C214.282 218.69 214.539 218.657 214.772 218.59C215.005 218.517 215.235 218.397 215.462 218.23C215.522 218.183 215.575 218.16 215.622 218.16C215.669 218.153 215.709 218.163 215.742 218.19C215.775 218.21 215.795 218.24 215.802 218.28C215.815 218.32 215.812 218.367 215.792 218.42C215.772 218.467 215.735 218.51 215.682 218.55C215.462 218.717 215.202 218.847 214.902 218.94C214.609 219.033 214.315 219.08 214.022 219.08ZM220.257 220.86C220.197 220.86 220.151 220.843 220.117 220.81C220.091 220.777 220.077 220.733 220.077 220.68C220.084 220.627 220.104 220.57 220.137 220.51L221.057 218.93L221.027 219.13L219.777 214.42C219.764 214.353 219.761 214.297 219.767 214.25C219.774 214.203 219.794 214.167 219.827 214.14C219.867 214.113 219.917 214.1 219.977 214.1C220.044 214.1 220.091 214.117 220.117 214.15C220.144 214.177 220.167 214.227 220.187 214.3L221.347 218.86H221.097L223.757 214.26C223.791 214.207 223.824 214.167 223.857 214.14C223.891 214.113 223.934 214.1 223.987 214.1C224.047 214.1 224.094 214.117 224.127 214.15C224.167 214.183 224.191 214.227 224.197 214.28C224.204 214.327 224.187 214.383 224.147 214.45L220.487 220.69C220.461 220.743 220.427 220.783 220.387 220.81C220.354 220.843 220.311 220.86 220.257 220.86ZM226.548 219.08C226.154 219.08 225.811 218.997 225.518 218.83C225.224 218.663 224.998 218.427 224.838 218.12C224.684 217.807 224.608 217.433 224.608 217C224.608 216.613 224.658 216.247 224.758 215.9C224.864 215.547 225.021 215.233 225.228 214.96C225.434 214.687 225.688 214.473 225.988 214.32C226.288 214.16 226.634 214.08 227.028 214.08C227.428 214.08 227.771 214.163 228.058 214.33C228.351 214.497 228.574 214.737 228.728 215.05C228.888 215.357 228.968 215.727 228.968 216.16C228.968 216.547 228.914 216.917 228.808 217.27C228.708 217.617 228.554 217.927 228.348 218.2C228.141 218.473 227.888 218.69 227.588 218.85C227.288 219.003 226.941 219.08 226.548 219.08ZM226.568 218.69C226.994 218.69 227.354 218.573 227.648 218.34C227.941 218.107 228.161 217.797 228.308 217.41C228.461 217.023 228.538 216.6 228.538 216.14C228.538 215.587 228.401 215.17 228.128 214.89C227.861 214.61 227.488 214.47 227.008 214.47C226.581 214.47 226.221 214.587 225.928 214.82C225.634 215.053 225.411 215.363 225.258 215.75C225.111 216.13 225.038 216.553 225.038 217.02C225.038 217.567 225.171 217.983 225.438 218.27C225.711 218.55 226.088 218.69 226.568 218.69ZM231.669 219.08C231.322 219.08 231.029 219.01 230.789 218.87C230.549 218.723 230.379 218.507 230.279 218.22C230.179 217.927 230.162 217.557 230.229 217.11L230.669 214.31C230.682 214.237 230.709 214.183 230.749 214.15C230.789 214.117 230.842 214.1 230.909 214.1C230.975 214.1 231.025 214.123 231.059 214.17C231.092 214.21 231.102 214.27 231.089 214.35L230.649 217.12C230.562 217.647 230.605 218.04 230.779 218.3C230.959 218.56 231.259 218.69 231.679 218.69C232.232 218.69 232.672 218.517 232.999 218.17C233.325 217.823 233.532 217.367 233.619 216.8L234.009 214.31C234.022 214.237 234.049 214.183 234.089 214.15C234.129 214.117 234.182 214.1 234.249 214.1C234.315 214.1 234.365 214.12 234.399 214.16C234.432 214.193 234.442 214.247 234.429 214.32L233.709 218.85C233.689 218.99 233.612 219.06 233.479 219.06C233.412 219.06 233.362 219.04 233.329 219C233.302 218.953 233.295 218.89 233.309 218.81L233.469 217.8H233.579C233.425 218.2 233.182 218.513 232.849 218.74C232.515 218.967 232.122 219.08 231.669 219.08ZM239.439 219.08C239.172 219.08 238.919 219.023 238.679 218.91C238.439 218.79 238.245 218.623 238.099 218.41C237.952 218.197 237.879 217.947 237.879 217.66C237.879 217.32 237.972 217.047 238.159 216.84C238.352 216.633 238.652 216.483 239.059 216.39C239.465 216.297 239.989 216.25 240.629 216.25H241.439L241.379 216.62H240.789C240.169 216.62 239.682 216.653 239.329 216.72C238.975 216.78 238.722 216.887 238.569 217.04C238.422 217.187 238.349 217.387 238.349 217.64C238.349 217.987 238.462 218.25 238.689 218.43C238.922 218.61 239.182 218.7 239.469 218.7C239.735 218.7 239.989 218.637 240.229 218.51C240.475 218.383 240.685 218.2 240.859 217.96C241.032 217.72 241.145 217.43 241.199 217.09L241.399 215.85C241.472 215.397 241.419 215.053 241.239 214.82C241.065 214.587 240.745 214.47 240.279 214.47C240.012 214.47 239.759 214.497 239.519 214.55C239.285 214.603 239.062 214.707 238.849 214.86C238.795 214.9 238.742 214.92 238.689 214.92C238.642 214.92 238.602 214.907 238.569 214.88C238.535 214.853 238.515 214.82 238.509 214.78C238.502 214.74 238.509 214.697 238.529 214.65C238.549 214.603 238.589 214.56 238.649 214.52C238.882 214.367 239.142 214.257 239.429 214.19C239.715 214.117 240.005 214.08 240.299 214.08C240.692 214.08 241.009 214.157 241.249 214.31C241.495 214.457 241.665 214.673 241.759 214.96C241.852 215.24 241.865 215.58 241.799 215.98L241.339 218.85C241.332 218.917 241.309 218.967 241.269 219C241.229 219.04 241.175 219.06 241.109 219.06C241.042 219.06 240.995 219.037 240.969 218.99C240.942 218.943 240.932 218.883 240.939 218.81L241.089 217.84H241.189C241.102 218.12 240.965 218.353 240.779 218.54C240.599 218.72 240.389 218.857 240.149 218.95C239.915 219.037 239.679 219.08 239.439 219.08ZM243.205 219.06C243.139 219.06 243.089 219.04 243.055 219C243.029 218.953 243.022 218.89 243.035 218.81L243.745 214.31C243.759 214.237 243.785 214.183 243.825 214.15C243.865 214.117 243.919 214.1 243.985 214.1C244.045 214.1 244.092 214.123 244.125 214.17C244.159 214.21 244.169 214.27 244.155 214.35L244.005 215.3H243.895C244.035 214.9 244.279 214.593 244.625 214.38C244.979 214.167 245.359 214.06 245.765 214.06C245.879 214.06 245.955 214.073 245.995 214.1C246.042 214.12 246.065 214.163 246.065 214.23C246.065 214.297 246.049 214.347 246.015 214.38C245.982 214.407 245.919 214.427 245.825 214.44L245.705 214.45C245.099 214.497 244.659 214.677 244.385 214.99C244.119 215.303 243.945 215.707 243.865 216.2L243.445 218.85C243.439 218.917 243.415 218.967 243.375 219C243.335 219.04 243.279 219.06 243.205 219.06ZM248.358 219.08C247.925 219.08 247.548 218.997 247.228 218.83C246.915 218.663 246.675 218.427 246.508 218.12C246.341 217.807 246.258 217.433 246.258 217C246.258 216.487 246.355 216.01 246.548 215.57C246.741 215.123 247.025 214.763 247.398 214.49C247.771 214.217 248.225 214.08 248.758 214.08C249.118 214.08 249.418 214.147 249.658 214.28C249.905 214.407 250.098 214.58 250.238 214.8C250.385 215.02 250.478 215.27 250.518 215.55C250.565 215.83 250.568 216.117 250.528 216.41C250.515 216.503 250.491 216.57 250.458 216.61C250.425 216.643 250.365 216.66 250.278 216.66H246.548L246.608 216.29H250.328L250.138 216.41C250.191 216.05 250.178 215.723 250.098 215.43C250.025 215.137 249.878 214.903 249.658 214.73C249.445 214.55 249.141 214.46 248.748 214.46C248.328 214.46 247.978 214.557 247.698 214.75C247.425 214.937 247.211 215.177 247.058 215.47C246.905 215.757 246.801 216.053 246.748 216.36L246.718 216.54C246.611 217.18 246.701 217.7 246.988 218.1C247.281 218.493 247.731 218.69 248.338 218.69C248.618 218.69 248.875 218.657 249.108 218.59C249.341 218.517 249.571 218.397 249.798 218.23C249.858 218.183 249.911 218.16 249.958 218.16C250.005 218.153 250.045 218.163 250.078 218.19C250.111 218.21 250.131 218.24 250.138 218.28C250.151 218.32 250.148 218.367 250.128 218.42C250.108 218.467 250.071 218.51 250.018 218.55C249.798 218.717 249.538 218.847 249.238 218.94C248.945 219.033 248.651 219.08 248.358 219.08ZM254.113 219.06C254.047 219.06 253.997 219.04 253.963 219C253.937 218.953 253.93 218.89 253.943 218.81L255.003 212.1C255.017 212.027 255.043 211.973 255.083 211.94C255.123 211.907 255.177 211.89 255.243 211.89C255.31 211.89 255.357 211.913 255.383 211.96C255.417 212 255.427 212.06 255.413 212.14L254.903 215.36H254.793C254.96 214.96 255.21 214.647 255.543 214.42C255.877 214.193 256.28 214.08 256.753 214.08C257.113 214.08 257.413 214.153 257.653 214.3C257.9 214.44 258.073 214.657 258.173 214.95C258.28 215.237 258.297 215.603 258.223 216.05L257.783 218.85C257.777 218.917 257.75 218.967 257.703 219C257.663 219.04 257.607 219.06 257.533 219.06C257.467 219.06 257.417 219.04 257.383 219C257.357 218.953 257.35 218.89 257.363 218.81L257.803 216.04C257.89 215.507 257.843 215.113 257.663 214.86C257.483 214.6 257.177 214.47 256.743 214.47C256.17 214.47 255.717 214.643 255.383 214.99C255.057 215.33 254.847 215.787 254.753 216.36L254.363 218.85C254.343 218.99 254.26 219.06 254.113 219.06ZM261.021 219.08C260.754 219.08 260.501 219.023 260.261 218.91C260.021 218.79 259.827 218.623 259.681 218.41C259.534 218.197 259.461 217.947 259.461 217.66C259.461 217.32 259.554 217.047 259.741 216.84C259.934 216.633 260.234 216.483 260.641 216.39C261.047 216.297 261.571 216.25 262.211 216.25H263.021L262.961 216.62H262.371C261.751 216.62 261.264 216.653 260.911 216.72C260.557 216.78 260.304 216.887 260.151 217.04C260.004 217.187 259.931 217.387 259.931 217.64C259.931 217.987 260.044 218.25 260.271 218.43C260.504 218.61 260.764 218.7 261.051 218.7C261.317 218.7 261.571 218.637 261.811 218.51C262.057 218.383 262.267 218.2 262.441 217.96C262.614 217.72 262.727 217.43 262.781 217.09L262.981 215.85C263.054 215.397 263.001 215.053 262.821 214.82C262.647 214.587 262.327 214.47 261.861 214.47C261.594 214.47 261.341 214.497 261.101 214.55C260.867 214.603 260.644 214.707 260.431 214.86C260.377 214.9 260.324 214.92 260.271 214.92C260.224 214.92 260.184 214.907 260.151 214.88C260.117 214.853 260.097 214.82 260.091 214.78C260.084 214.74 260.091 214.697 260.111 214.65C260.131 214.603 260.171 214.56 260.231 214.52C260.464 214.367 260.724 214.257 261.011 214.19C261.297 214.117 261.587 214.08 261.881 214.08C262.274 214.08 262.591 214.157 262.831 214.31C263.077 214.457 263.247 214.673 263.341 214.96C263.434 215.24 263.447 215.58 263.381 215.98L262.921 218.85C262.914 218.917 262.891 218.967 262.851 219C262.811 219.04 262.757 219.06 262.691 219.06C262.624 219.06 262.577 219.037 262.551 218.99C262.524 218.943 262.514 218.883 262.521 218.81L262.671 217.84H262.771C262.684 218.12 262.547 218.353 262.361 218.54C262.181 218.72 261.971 218.857 261.731 218.95C261.497 219.037 261.261 219.08 261.021 219.08ZM266.189 219.06C266.109 219.06 266.045 219.04 265.999 219C265.959 218.953 265.925 218.887 265.899 218.8L264.729 214.43C264.715 214.363 264.712 214.307 264.719 214.26C264.732 214.213 264.755 214.177 264.789 214.15C264.829 214.117 264.879 214.1 264.939 214.1C264.999 214.1 265.042 214.117 265.069 214.15C265.102 214.177 265.129 214.227 265.149 214.3L266.309 218.85H266.069L268.709 214.26C268.742 214.207 268.775 214.167 268.809 214.14C268.842 214.113 268.885 214.1 268.939 214.1C268.999 214.1 269.045 214.117 269.079 214.15C269.119 214.183 269.139 214.227 269.139 214.28C269.145 214.327 269.129 214.383 269.089 214.45L266.519 218.85C266.479 218.917 266.435 218.967 266.389 219C266.342 219.04 266.275 219.06 266.189 219.06ZM269.768 219.06C269.701 219.06 269.651 219.04 269.618 219C269.591 218.953 269.584 218.89 269.598 218.81L270.308 214.31C270.321 214.237 270.348 214.183 270.388 214.15C270.428 214.117 270.481 214.1 270.548 214.1C270.614 214.1 270.661 214.123 270.688 214.17C270.721 214.21 270.731 214.27 270.718 214.35L270.008 218.85C270.001 218.917 269.978 218.967 269.938 219C269.898 219.04 269.841 219.06 269.768 219.06ZM270.768 212.84C270.674 212.84 270.601 212.817 270.548 212.77C270.494 212.717 270.468 212.647 270.468 212.56C270.468 212.427 270.504 212.327 270.578 212.26C270.651 212.187 270.751 212.15 270.878 212.15C270.971 212.15 271.044 212.173 271.098 212.22C271.151 212.267 271.178 212.337 271.178 212.43C271.178 212.557 271.141 212.657 271.068 212.73C270.994 212.803 270.894 212.84 270.768 212.84ZM271.897 219.06C271.83 219.06 271.78 219.037 271.747 218.99C271.72 218.937 271.713 218.87 271.727 218.79L272.437 214.31C272.45 214.237 272.477 214.183 272.517 214.15C272.557 214.117 272.61 214.1 272.677 214.1C272.737 214.1 272.78 214.123 272.807 214.17C272.84 214.21 272.85 214.27 272.837 214.35L272.677 215.36H272.567C272.733 214.96 272.983 214.647 273.317 214.42C273.65 214.193 274.053 214.08 274.527 214.08C274.887 214.08 275.187 214.153 275.427 214.3C275.673 214.44 275.847 214.657 275.947 214.95C276.053 215.237 276.07 215.603 275.997 216.05L275.547 218.87C275.54 218.93 275.517 218.977 275.477 219.01C275.437 219.043 275.38 219.06 275.307 219.06C275.24 219.06 275.19 219.04 275.157 219C275.13 218.953 275.123 218.89 275.137 218.81L275.577 216.04C275.663 215.507 275.617 215.113 275.437 214.86C275.257 214.6 274.95 214.47 274.517 214.47C273.943 214.47 273.49 214.643 273.157 214.99C272.83 215.33 272.62 215.787 272.527 216.36L272.137 218.85C272.117 218.99 272.037 219.06 271.897 219.06ZM279.154 220.88C278.774 220.88 278.424 220.82 278.104 220.7C277.791 220.58 277.501 220.423 277.234 220.23C277.194 220.203 277.171 220.17 277.164 220.13C277.157 220.09 277.161 220.05 277.174 220.01C277.194 219.97 277.217 219.937 277.244 219.91C277.277 219.883 277.314 219.867 277.354 219.86C277.401 219.86 277.447 219.877 277.494 219.91C277.747 220.097 277.997 220.24 278.244 220.34C278.497 220.44 278.794 220.49 279.134 220.49C279.587 220.49 279.957 220.367 280.244 220.12C280.531 219.88 280.714 219.507 280.794 219L281.004 217.67L281.084 217.68C280.917 218.047 280.667 218.34 280.334 218.56C280.007 218.78 279.617 218.89 279.164 218.89C278.784 218.89 278.451 218.81 278.164 218.65C277.877 218.483 277.654 218.253 277.494 217.96C277.334 217.66 277.254 217.313 277.254 216.92C277.254 216.553 277.304 216.2 277.404 215.86C277.511 215.52 277.667 215.217 277.874 214.95C278.081 214.683 278.334 214.473 278.634 214.32C278.934 214.16 279.284 214.08 279.684 214.08C280.097 214.08 280.464 214.187 280.784 214.4C281.104 214.607 281.321 214.933 281.434 215.38H281.354L281.524 214.31C281.537 214.237 281.564 214.183 281.604 214.15C281.644 214.117 281.697 214.1 281.764 214.1C281.831 214.1 281.877 214.123 281.904 214.17C281.937 214.21 281.947 214.27 281.934 214.35L281.204 218.98C281.097 219.627 280.874 220.103 280.534 220.41C280.201 220.723 279.741 220.88 279.154 220.88ZM279.224 218.5C279.657 218.5 280.021 218.387 280.314 218.16C280.607 217.927 280.827 217.623 280.974 217.25C281.127 216.877 281.204 216.473 281.204 216.04C281.204 215.54 281.067 215.153 280.794 214.88C280.527 214.607 280.151 214.47 279.664 214.47C279.237 214.47 278.874 214.587 278.574 214.82C278.281 215.047 278.057 215.347 277.904 215.72C277.757 216.087 277.684 216.487 277.684 216.92C277.684 217.427 277.817 217.817 278.084 218.09C278.357 218.363 278.737 218.5 279.224 218.5Z" fill="black"/>
<path d="M135.2 208.257C135.223 208.182 135.263 208.117 135.317 208.071C135.371 208.025 135.435 208 135.5 208C135.566 208 135.63 208.025 135.684 208.071C135.737 208.117 135.778 208.182 135.8 208.257L136.106 209.276C136.345 210.075 136.724 210.801 137.216 211.403C137.709 212.005 138.303 212.468 138.956 212.76L139.79 213.134C139.851 213.161 139.905 213.211 139.942 213.276C139.98 213.342 140 213.42 140 213.5C140 213.581 139.98 213.659 139.942 213.724C139.905 213.79 139.851 213.84 139.79 213.867L138.956 214.24C138.303 214.533 137.709 214.996 137.216 215.598C136.724 216.2 136.345 216.925 136.106 217.724L135.8 218.743C135.778 218.818 135.737 218.883 135.684 218.929C135.63 218.975 135.566 219 135.5 219C135.435 219 135.371 218.975 135.317 218.929C135.263 218.883 135.223 218.818 135.2 218.743L134.895 217.724C134.656 216.925 134.277 216.2 133.784 215.598C133.292 214.996 132.698 214.533 132.044 214.24L131.21 213.867C131.149 213.84 131.095 213.79 131.058 213.724C131.02 213.659 131 213.581 131 213.5C131 213.42 131.02 213.342 131.058 213.276C131.095 213.211 131.149 213.161 131.21 213.134L132.044 212.76C132.698 212.468 133.292 212.005 133.784 211.403C134.277 210.801 134.656 210.075 134.895 209.276L135.2 208.257Z" fill="#FF561C"/>
<path d="M129.333 216.14C129.346 216.099 129.369 216.064 129.398 216.039C129.428 216.013 129.464 216 129.5 216C129.537 216 129.572 216.013 129.602 216.039C129.632 216.064 129.654 216.099 129.667 216.14L129.836 216.696C129.969 217.132 130.18 217.528 130.454 217.856C130.727 218.184 131.057 218.437 131.42 218.597L131.883 218.8C131.917 218.815 131.947 218.842 131.968 218.878C131.989 218.914 132 218.956 132 219C132 219.044 131.989 219.087 131.968 219.122C131.947 219.158 131.917 219.185 131.883 219.2L131.42 219.404C131.057 219.563 130.727 219.816 130.454 220.144C130.18 220.473 129.969 220.868 129.836 221.304L129.667 221.86C129.654 221.901 129.632 221.936 129.602 221.961C129.572 221.987 129.537 222 129.5 222C129.464 222 129.428 221.987 129.398 221.961C129.369 221.936 129.346 221.901 129.333 221.86L129.164 221.304C129.031 220.868 128.82 220.473 128.547 220.144C128.273 219.816 127.943 219.563 127.58 219.404L127.117 219.2C127.083 219.185 127.053 219.158 127.032 219.122C127.011 219.087 127 219.044 127 219C127 218.956 127.011 218.914 127.032 218.878C127.053 218.842 127.083 218.815 127.117 218.8L127.58 218.597C127.943 218.437 128.273 218.184 128.547 217.856C128.82 217.528 129.031 217.132 129.164 216.696L129.333 216.14Z" fill="#FF561C"/>
<path d="M91.1837 162.999L108.31 156.312L100.998 173.181L98.4288 166.868C98.2352 166.392 97.8663 166.009 97.3983 165.798L91.1837 162.999Z" stroke="#FF561C" stroke-width="2.5" stroke-linecap="round" stroke-linejoin="round"/>
<path d="M176.11 150.06C176.01 150.06 175.933 150.033 175.88 149.98C175.827 149.927 175.8 149.85 175.8 149.75V145.4C175.8 145.293 175.827 145.213 175.88 145.16C175.933 145.107 176.01 145.08 176.11 145.08C176.203 145.08 176.273 145.107 176.32 145.16C176.373 145.213 176.4 145.293 176.4 145.4V146.29H176.3C176.42 145.897 176.633 145.593 176.94 145.38C177.253 145.167 177.627 145.057 178.06 145.05C178.14 145.043 178.207 145.06 178.26 145.1C178.313 145.14 178.34 145.203 178.34 145.29C178.347 145.383 178.327 145.457 178.28 145.51C178.233 145.557 178.157 145.587 178.05 145.6L177.91 145.61C177.437 145.657 177.07 145.813 176.81 146.08C176.55 146.347 176.42 146.707 176.42 147.16V149.75C176.42 149.85 176.393 149.927 176.34 149.98C176.293 150.033 176.217 150.06 176.11 150.06ZM180.669 150.08C180.342 150.08 180.049 150.017 179.789 149.89C179.536 149.763 179.332 149.59 179.179 149.37C179.032 149.15 178.959 148.903 178.959 148.63C178.959 148.27 179.049 147.987 179.229 147.78C179.409 147.573 179.712 147.43 180.139 147.35C180.566 147.263 181.152 147.22 181.899 147.22H182.329V147.67H181.909C181.309 147.67 180.839 147.697 180.499 147.75C180.166 147.797 179.932 147.887 179.799 148.02C179.666 148.153 179.599 148.34 179.599 148.58C179.599 148.88 179.702 149.123 179.909 149.31C180.116 149.497 180.396 149.59 180.749 149.59C181.036 149.59 181.286 149.523 181.499 149.39C181.719 149.25 181.892 149.06 182.019 148.82C182.146 148.58 182.209 148.307 182.209 148V146.86C182.209 146.413 182.119 146.09 181.939 145.89C181.759 145.683 181.472 145.58 181.079 145.58C180.826 145.58 180.579 145.613 180.339 145.68C180.106 145.747 179.856 145.853 179.589 146C179.516 146.04 179.449 146.053 179.389 146.04C179.336 146.027 179.292 146 179.259 145.96C179.232 145.92 179.212 145.873 179.199 145.82C179.192 145.76 179.202 145.703 179.229 145.65C179.256 145.597 179.302 145.553 179.369 145.52C179.649 145.367 179.932 145.253 180.219 145.18C180.512 145.1 180.796 145.06 181.069 145.06C181.462 145.06 181.786 145.127 182.039 145.26C182.299 145.393 182.489 145.593 182.609 145.86C182.736 146.127 182.799 146.47 182.799 146.89V149.75C182.799 149.85 182.776 149.927 182.729 149.98C182.682 150.033 182.612 150.06 182.519 150.06C182.426 150.06 182.352 150.033 182.299 149.98C182.246 149.927 182.219 149.85 182.219 149.75V148.83H182.319C182.259 149.09 182.152 149.313 181.999 149.5C181.846 149.687 181.656 149.83 181.429 149.93C181.202 150.03 180.949 150.08 180.669 150.08ZM184.704 150.04C184.604 150.04 184.527 150.01 184.474 149.95C184.42 149.89 184.394 149.81 184.394 149.71V145.43C184.394 145.323 184.42 145.243 184.474 145.19C184.527 145.137 184.604 145.11 184.704 145.11C184.797 145.11 184.87 145.137 184.924 145.19C184.977 145.243 185.004 145.323 185.004 145.43V149.71C185.004 149.81 184.977 149.89 184.924 149.95C184.877 150.01 184.804 150.04 184.704 150.04ZM184.704 143.9C184.564 143.9 184.454 143.863 184.374 143.79C184.3 143.717 184.264 143.613 184.264 143.48C184.264 143.347 184.3 143.247 184.374 143.18C184.454 143.107 184.564 143.07 184.704 143.07C184.844 143.07 184.95 143.107 185.024 143.18C185.104 143.247 185.144 143.347 185.144 143.48C185.144 143.613 185.104 143.717 185.024 143.79C184.95 143.863 184.844 143.9 184.704 143.9ZM188.191 150.08C187.891 150.08 187.591 150.04 187.291 149.96C186.997 149.88 186.717 149.743 186.451 149.55C186.397 149.517 186.361 149.477 186.341 149.43C186.327 149.377 186.324 149.323 186.331 149.27C186.344 149.217 186.367 149.173 186.401 149.14C186.441 149.1 186.487 149.077 186.541 149.07C186.594 149.063 186.651 149.08 186.711 149.12C186.971 149.293 187.224 149.413 187.471 149.48C187.717 149.547 187.964 149.58 188.211 149.58C188.617 149.58 188.927 149.503 189.141 149.35C189.354 149.197 189.461 148.99 189.461 148.73C189.461 148.517 189.391 148.353 189.251 148.24C189.117 148.12 188.897 148.023 188.591 147.95L187.721 147.75C187.301 147.657 186.991 147.507 186.791 147.3C186.591 147.087 186.491 146.813 186.491 146.48C186.491 146.193 186.564 145.943 186.711 145.73C186.864 145.517 187.077 145.353 187.351 145.24C187.631 145.12 187.951 145.06 188.311 145.06C188.604 145.06 188.884 145.103 189.151 145.19C189.417 145.277 189.651 145.41 189.851 145.59C189.904 145.63 189.937 145.677 189.951 145.73C189.971 145.783 189.971 145.837 189.951 145.89C189.937 145.937 189.911 145.977 189.871 146.01C189.831 146.043 189.784 146.06 189.731 146.06C189.677 146.06 189.621 146.04 189.561 146C189.367 145.853 189.164 145.747 188.951 145.68C188.737 145.607 188.521 145.57 188.301 145.57C187.914 145.57 187.614 145.65 187.401 145.81C187.194 145.97 187.091 146.187 187.091 146.46C187.091 146.667 187.154 146.833 187.281 146.96C187.414 147.087 187.621 147.183 187.901 147.25L188.771 147.45C189.204 147.55 189.527 147.7 189.741 147.9C189.954 148.093 190.061 148.357 190.061 148.69C190.061 149.117 189.891 149.457 189.551 149.71C189.217 149.957 188.764 150.08 188.191 150.08ZM193.496 150.08C192.996 150.08 192.566 149.98 192.206 149.78C191.846 149.58 191.569 149.293 191.376 148.92C191.183 148.547 191.086 148.103 191.086 147.59C191.086 147.083 191.183 146.643 191.376 146.27C191.569 145.89 191.836 145.593 192.176 145.38C192.523 145.167 192.919 145.06 193.366 145.06C193.693 145.06 193.979 145.117 194.226 145.23C194.479 145.337 194.693 145.493 194.866 145.7C195.046 145.9 195.183 146.147 195.276 146.44C195.369 146.727 195.416 147.053 195.416 147.42C195.416 147.513 195.389 147.583 195.336 147.63C195.289 147.677 195.223 147.7 195.136 147.7H191.526V147.25H195.036L194.876 147.38C194.876 146.993 194.819 146.667 194.706 146.4C194.593 146.127 194.423 145.917 194.196 145.77C193.976 145.623 193.703 145.55 193.376 145.55C193.009 145.55 192.699 145.637 192.446 145.81C192.193 145.977 192.003 146.21 191.876 146.51C191.749 146.803 191.686 147.143 191.686 147.53V147.58C191.686 148.22 191.843 148.713 192.156 149.06C192.469 149.4 192.909 149.57 193.476 149.57C193.723 149.57 193.959 149.537 194.186 149.47C194.419 149.403 194.646 149.29 194.866 149.13C194.933 149.083 194.996 149.06 195.056 149.06C195.123 149.06 195.176 149.077 195.216 149.11C195.263 149.143 195.293 149.187 195.306 149.24C195.326 149.287 195.323 149.34 195.296 149.4C195.276 149.453 195.233 149.503 195.166 149.55C194.953 149.723 194.696 149.857 194.396 149.95C194.096 150.037 193.796 150.08 193.496 150.08ZM199.489 150.06C199.389 150.06 199.312 150.033 199.259 149.98C199.206 149.927 199.179 149.85 199.179 149.75V145.4C199.179 145.293 199.206 145.213 199.259 145.16C199.312 145.107 199.389 145.08 199.489 145.08C199.582 145.08 199.652 145.107 199.699 145.16C199.752 145.213 199.779 145.293 199.779 145.4V146.34L199.669 146.28C199.802 145.88 200.029 145.577 200.349 145.37C200.676 145.163 201.049 145.06 201.469 145.06C201.856 145.06 202.176 145.13 202.429 145.27C202.689 145.403 202.882 145.61 203.009 145.89C203.136 146.17 203.199 146.52 203.199 146.94V149.75C203.199 149.85 203.172 149.927 203.119 149.98C203.066 150.033 202.992 150.06 202.899 150.06C202.799 150.06 202.722 150.033 202.669 149.98C202.616 149.927 202.589 149.85 202.589 149.75V146.99C202.589 146.503 202.492 146.15 202.299 145.93C202.106 145.703 201.799 145.59 201.379 145.59C200.899 145.59 200.512 145.74 200.219 146.04C199.932 146.333 199.789 146.73 199.789 147.23V149.75C199.789 149.957 199.689 150.06 199.489 150.06ZM206.885 150.08C206.385 150.08 205.955 149.98 205.595 149.78C205.235 149.58 204.958 149.293 204.765 148.92C204.571 148.547 204.475 148.103 204.475 147.59C204.475 147.083 204.571 146.643 204.765 146.27C204.958 145.89 205.225 145.593 205.565 145.38C205.911 145.167 206.308 145.06 206.755 145.06C207.081 145.06 207.368 145.117 207.615 145.23C207.868 145.337 208.081 145.493 208.255 145.7C208.435 145.9 208.571 146.147 208.665 146.44C208.758 146.727 208.805 147.053 208.805 147.42C208.805 147.513 208.778 147.583 208.725 147.63C208.678 147.677 208.611 147.7 208.525 147.7H204.915V147.25H208.425L208.265 147.38C208.265 146.993 208.208 146.667 208.095 146.4C207.981 146.127 207.811 145.917 207.585 145.77C207.365 145.623 207.091 145.55 206.765 145.55C206.398 145.55 206.088 145.637 205.835 145.81C205.581 145.977 205.391 146.21 205.265 146.51C205.138 146.803 205.075 147.143 205.075 147.53V147.58C205.075 148.22 205.231 148.713 205.545 149.06C205.858 149.4 206.298 149.57 206.865 149.57C207.111 149.57 207.348 149.537 207.575 149.47C207.808 149.403 208.035 149.29 208.255 149.13C208.321 149.083 208.385 149.06 208.445 149.06C208.511 149.06 208.565 149.077 208.605 149.11C208.651 149.143 208.681 149.187 208.695 149.24C208.715 149.287 208.711 149.34 208.685 149.4C208.665 149.453 208.621 149.503 208.555 149.55C208.341 149.723 208.085 149.857 207.785 149.95C207.485 150.037 207.185 150.08 206.885 150.08ZM211.579 150.06C211.493 150.06 211.413 150.037 211.339 149.99C211.273 149.937 211.216 149.857 211.169 149.75L209.659 145.54C209.626 145.447 209.616 145.367 209.629 145.3C209.649 145.233 209.683 145.18 209.729 145.14C209.783 145.1 209.846 145.08 209.919 145.08C209.999 145.08 210.063 145.1 210.109 145.14C210.156 145.173 210.196 145.24 210.229 145.34L211.709 149.64H211.459L212.999 145.37C213.033 145.27 213.083 145.197 213.149 145.15C213.216 145.103 213.293 145.08 213.379 145.08C213.473 145.08 213.553 145.103 213.619 145.15C213.686 145.197 213.736 145.27 213.769 145.37L215.269 149.64H215.019L216.539 145.33C216.573 145.23 216.613 145.163 216.659 145.13C216.706 145.097 216.769 145.08 216.849 145.08C216.943 145.08 217.009 145.103 217.049 145.15C217.089 145.197 217.109 145.253 217.109 145.32C217.116 145.387 217.106 145.46 217.079 145.54L215.559 149.75C215.519 149.857 215.463 149.937 215.389 149.99C215.323 150.037 215.243 150.06 215.149 150.06C215.063 150.06 214.983 150.037 214.909 149.99C214.836 149.937 214.779 149.857 214.739 149.75L213.189 145.43H213.559L211.999 149.75C211.959 149.857 211.903 149.937 211.829 149.99C211.763 150.037 211.679 150.06 211.579 150.06ZM222.689 150.08C222.329 150.08 222.029 150.013 221.789 149.88C221.549 149.747 221.369 149.557 221.249 149.31C221.129 149.057 221.069 148.747 221.069 148.38V145.64H220.329C220.242 145.64 220.172 145.62 220.119 145.58C220.065 145.533 220.039 145.47 220.039 145.39C220.039 145.317 220.065 145.26 220.119 145.22C220.172 145.173 220.242 145.15 220.329 145.15H221.069V143.9C221.069 143.793 221.095 143.717 221.149 143.67C221.202 143.617 221.279 143.59 221.379 143.59C221.472 143.59 221.545 143.617 221.599 143.67C221.652 143.717 221.679 143.793 221.679 143.9V145.15H223.029C223.122 145.15 223.192 145.173 223.239 145.22C223.285 145.26 223.309 145.317 223.309 145.39C223.309 145.47 223.285 145.533 223.239 145.58C223.192 145.62 223.122 145.64 223.029 145.64H221.679V148.3C221.679 148.707 221.762 149.017 221.929 149.23C222.095 149.443 222.372 149.55 222.759 149.55C222.892 149.55 223.002 149.537 223.089 149.51C223.182 149.477 223.259 149.46 223.319 149.46C223.365 149.46 223.405 149.48 223.439 149.52C223.479 149.56 223.499 149.623 223.499 149.71C223.499 149.763 223.485 149.817 223.459 149.87C223.439 149.923 223.399 149.957 223.339 149.97C223.265 149.997 223.165 150.02 223.039 150.04C222.912 150.067 222.795 150.08 222.689 150.08ZM224.548 150.04C224.448 150.04 224.371 150.01 224.318 149.95C224.264 149.89 224.238 149.81 224.238 149.71V145.43C224.238 145.323 224.264 145.243 224.318 145.19C224.371 145.137 224.448 145.11 224.548 145.11C224.641 145.11 224.714 145.137 224.768 145.19C224.821 145.243 224.848 145.323 224.848 145.43V149.71C224.848 149.81 224.821 149.89 224.768 149.95C224.721 150.01 224.648 150.04 224.548 150.04ZM224.548 143.9C224.408 143.9 224.298 143.863 224.218 143.79C224.144 143.717 224.108 143.613 224.108 143.48C224.108 143.347 224.144 143.247 224.218 143.18C224.298 143.107 224.408 143.07 224.548 143.07C224.688 143.07 224.794 143.107 224.868 143.18C224.948 143.247 224.988 143.347 224.988 143.48C224.988 143.613 224.948 143.717 224.868 143.79C224.794 143.863 224.688 143.9 224.548 143.9ZM228.434 150.08C227.961 150.08 227.554 149.977 227.214 149.77C226.874 149.557 226.611 149.26 226.424 148.88C226.244 148.493 226.154 148.047 226.154 147.54C226.154 147.153 226.204 146.81 226.304 146.51C226.411 146.203 226.561 145.943 226.754 145.73C226.954 145.517 227.194 145.353 227.474 145.24C227.761 145.12 228.081 145.06 228.434 145.06C228.681 145.06 228.934 145.103 229.194 145.19C229.454 145.27 229.691 145.407 229.904 145.6C229.951 145.64 229.981 145.687 229.994 145.74C230.008 145.793 230.004 145.847 229.984 145.9C229.964 145.947 229.934 145.987 229.894 146.02C229.854 146.047 229.804 146.063 229.744 146.07C229.691 146.07 229.634 146.043 229.574 145.99C229.388 145.837 229.198 145.733 229.004 145.68C228.818 145.62 228.634 145.59 228.454 145.59C228.181 145.59 227.941 145.633 227.734 145.72C227.528 145.807 227.351 145.933 227.204 146.1C227.064 146.267 226.958 146.473 226.884 146.72C226.811 146.96 226.774 147.237 226.774 147.55C226.774 148.177 226.918 148.67 227.204 149.03C227.498 149.383 227.914 149.56 228.454 149.56C228.634 149.56 228.818 149.533 229.004 149.48C229.198 149.42 229.388 149.313 229.574 149.16C229.634 149.107 229.691 149.083 229.744 149.09C229.804 149.09 229.854 149.107 229.894 149.14C229.934 149.167 229.961 149.207 229.974 149.26C229.994 149.307 229.998 149.357 229.984 149.41C229.971 149.463 229.941 149.51 229.894 149.55C229.688 149.743 229.454 149.88 229.194 149.96C228.934 150.04 228.681 150.08 228.434 150.08ZM231.354 150.06C231.254 150.06 231.177 150.033 231.124 149.98C231.071 149.927 231.044 149.85 231.044 149.75V143.2C231.044 143.093 231.071 143.017 231.124 142.97C231.177 142.917 231.254 142.89 231.354 142.89C231.447 142.89 231.521 142.917 231.574 142.97C231.627 143.017 231.654 143.093 231.654 143.2V147.35H231.674L233.914 145.3C233.987 145.233 234.051 145.18 234.104 145.14C234.164 145.1 234.241 145.08 234.334 145.08C234.414 145.08 234.477 145.103 234.524 145.15C234.571 145.197 234.591 145.253 234.584 145.32C234.584 145.38 234.551 145.447 234.484 145.52L232.104 147.69V147.3L234.694 149.6C234.774 149.673 234.814 149.747 234.814 149.82C234.821 149.887 234.801 149.943 234.754 149.99C234.707 150.037 234.644 150.06 234.564 150.06C234.477 150.06 234.404 150.04 234.344 150C234.284 149.967 234.211 149.91 234.124 149.83L231.674 147.67H231.654V149.75C231.654 149.957 231.554 150.06 231.354 150.06ZM237.861 150.08C237.361 150.08 236.931 149.98 236.571 149.78C236.211 149.58 235.935 149.293 235.741 148.92C235.548 148.547 235.451 148.103 235.451 147.59C235.451 147.083 235.548 146.643 235.741 146.27C235.935 145.89 236.201 145.593 236.541 145.38C236.888 145.167 237.285 145.06 237.731 145.06C238.058 145.06 238.345 145.117 238.591 145.23C238.845 145.337 239.058 145.493 239.231 145.7C239.411 145.9 239.548 146.147 239.641 146.44C239.735 146.727 239.781 147.053 239.781 147.42C239.781 147.513 239.755 147.583 239.701 147.63C239.655 147.677 239.588 147.7 239.501 147.7H235.891V147.25H239.401L239.241 147.38C239.241 146.993 239.185 146.667 239.071 146.4C238.958 146.127 238.788 145.917 238.561 145.77C238.341 145.623 238.068 145.55 237.741 145.55C237.375 145.55 237.065 145.637 236.811 145.81C236.558 145.977 236.368 146.21 236.241 146.51C236.115 146.803 236.051 147.143 236.051 147.53V147.58C236.051 148.22 236.208 148.713 236.521 149.06C236.835 149.4 237.275 149.57 237.841 149.57C238.088 149.57 238.325 149.537 238.551 149.47C238.785 149.403 239.011 149.29 239.231 149.13C239.298 149.083 239.361 149.06 239.421 149.06C239.488 149.06 239.541 149.077 239.581 149.11C239.628 149.143 239.658 149.187 239.671 149.24C239.691 149.287 239.688 149.34 239.661 149.4C239.641 149.453 239.598 149.503 239.531 149.55C239.318 149.723 239.061 149.857 238.761 149.95C238.461 150.037 238.161 150.08 237.861 150.08ZM242.855 150.08C242.495 150.08 242.195 150.013 241.955 149.88C241.715 149.747 241.535 149.557 241.415 149.31C241.295 149.057 241.235 148.747 241.235 148.38V145.64H240.495C240.408 145.64 240.338 145.62 240.285 145.58C240.231 145.533 240.205 145.47 240.205 145.39C240.205 145.317 240.231 145.26 240.285 145.22C240.338 145.173 240.408 145.15 240.495 145.15H241.235V143.9C241.235 143.793 241.261 143.717 241.315 143.67C241.368 143.617 241.445 143.59 241.545 143.59C241.638 143.59 241.711 143.617 241.765 143.67C241.818 143.717 241.845 143.793 241.845 143.9V145.15H243.195C243.288 145.15 243.358 145.173 243.405 145.22C243.451 145.26 243.475 145.317 243.475 145.39C243.475 145.47 243.451 145.533 243.405 145.58C243.358 145.62 243.288 145.64 243.195 145.64H241.845V148.3C241.845 148.707 241.928 149.017 242.095 149.23C242.261 149.443 242.538 149.55 242.925 149.55C243.058 149.55 243.168 149.537 243.255 149.51C243.348 149.477 243.425 149.46 243.485 149.46C243.531 149.46 243.571 149.48 243.605 149.52C243.645 149.56 243.665 149.623 243.665 149.71C243.665 149.763 243.651 149.817 243.625 149.87C243.605 149.923 243.565 149.957 243.505 149.97C243.431 149.997 243.331 150.02 243.205 150.04C243.078 150.067 242.961 150.08 242.855 150.08Z" fill="black" fill-opacity="0.76"/>
</g>
<rect x="63" y="68" width="253" height="204" rx="10" stroke="white" stroke-width="6"/>
<defs>
<filter id="filter0_d_2226_12199" x="155" y="125" width="225" height="53" filterUnits="userSpaceOnUse" color-interpolation-filters="sRGB">
<feFlood flood-opacity="0" result="BackgroundImageFix"/>
<feColorMatrix in="SourceAlpha" type="matrix" values="0 0 0 0 0 0 0 0 0 0 0 0 0 0 0 0 0 0 127 0" result="hardAlpha"/>
<feOffset dy="4"/>
<feGaussianBlur stdDeviation="2"/>
<feComposite in2="hardAlpha" operator="out"/>
<feColorMatrix type="matrix" values="0 0 0 0 0 0 0 0 0 0 0 0 0 0 0 0 0 0 0.05 0"/>
<feBlend mode="normal" in2="BackgroundImageFix" result="effect1_dropShadow_2226_12199"/>
<feBlend mode="normal" in="SourceGraphic" in2="effect1_dropShadow_2226_12199" result="shape"/>
</filter>
<filter id="filter1_d_2226_12199" x="159" y="126" width="217" height="44" filterUnits="userSpaceOnUse" color-interpolation-filters="sRGB">
<feFlood flood-opacity="0" result="BackgroundImageFix"/>
<feColorMatrix in="SourceAlpha" type="matrix" values="0 0 0 0 0 0 0 0 0 0 0 0 0 0 0 0 0 0 127 0" result="hardAlpha"/>
<feOffset/>
<feGaussianBlur stdDeviation="2"/>
<feComposite in2="hardAlpha" operator="out"/>
<feColorMatrix type="matrix" values="0 0 0 0 0 0 0 0 0 0 0 0 0 0 0 0 0 0 0.07 0"/>
<feBlend mode="normal" in2="BackgroundImageFix" result="effect1_dropShadow_2226_12199"/>
<feBlend mode="normal" in="SourceGraphic" in2="effect1_dropShadow_2226_12199" result="shape"/>
</filter>
<filter id="filter2_d_2226_12199" x="132" y="159" width="225" height="53" filterUnits="userSpaceOnUse" color-interpolation-filters="sRGB">
<feFlood flood-opacity="0" result="BackgroundImageFix"/>
<feColorMatrix in="SourceAlpha" type="matrix" values="0 0 0 0 0 0 0 0 0 0 0 0 0 0 0 0 0 0 127 0" result="hardAlpha"/>
<feOffset dy="4"/>
<feGaussianBlur stdDeviation="2"/>
<feComposite in2="hardAlpha" operator="out"/>
<feColorMatrix type="matrix" values="0 0 0 0 0 0 0 0 0 0 0 0 0 0 0 0 0 0 0.05 0"/>
<feBlend mode="normal" in2="BackgroundImageFix" result="effect1_dropShadow_2226_12199"/>
<feBlend mode="normal" in="SourceGraphic" in2="effect1_dropShadow_2226_12199" result="shape"/>
</filter>
<filter id="filter3_d_2226_12199" x="136" y="160" width="217" height="44" filterUnits="userSpaceOnUse" color-interpolation-filters="sRGB">
<feFlood flood-opacity="0" result="BackgroundImageFix"/>
<feColorMatrix in="SourceAlpha" type="matrix" values="0 0 0 0 0 0 0 0 0 0 0 0 0 0 0 0 0 0 127 0" result="hardAlpha"/>
<feOffset/>
<feGaussianBlur stdDeviation="2"/>
<feComposite in2="hardAlpha" operator="out"/>
<feColorMatrix type="matrix" values="0 0 0 0 0 0 0 0 0 0 0 0 0 0 0 0 0 0 0.07 0"/>
<feBlend mode="normal" in2="BackgroundImageFix" result="effect1_dropShadow_2226_12199"/>
<feBlend mode="normal" in="SourceGraphic" in2="effect1_dropShadow_2226_12199" result="shape"/>
</filter>
<filter id="filter4_d_2226_12199" x="112" y="193" width="225" height="53" filterUnits="userSpaceOnUse" color-interpolation-filters="sRGB">
<feFlood flood-opacity="0" result="BackgroundImageFix"/>
<feColorMatrix in="SourceAlpha" type="matrix" values="0 0 0 0 0 0 0 0 0 0 0 0 0 0 0 0 0 0 127 0" result="hardAlpha"/>
<feOffset dy="4"/>
<feGaussianBlur stdDeviation="2"/>
<feComposite in2="hardAlpha" operator="out"/>
<feColorMatrix type="matrix" values="0 0 0 0 0 0 0 0 0 0 0 0 0 0 0 0 0 0 0.05 0"/>
<feBlend mode="normal" in2="BackgroundImageFix" result="effect1_dropShadow_2226_12199"/>
<feBlend mode="normal" in="SourceGraphic" in2="effect1_dropShadow_2226_12199" result="shape"/>
</filter>
<filter id="filter5_d_2226_12199" x="116" y="194" width="217" height="44" filterUnits="userSpaceOnUse" color-interpolation-filters="sRGB">
<feFlood flood-opacity="0" result="BackgroundImageFix"/>
<feColorMatrix in="SourceAlpha" type="matrix" values="0 0 0 0 0 0 0 0 0 0 0 0 0 0 0 0 0 0 127 0" result="hardAlpha"/>
<feOffset/>
<feGaussianBlur stdDeviation="2"/>
<feComposite in2="hardAlpha" operator="out"/>
<feColorMatrix type="matrix" values="0 0 0 0 0 0 0 0 0 0 0 0 0 0 0 0 0 0 0.07 0"/>
<feBlend mode="normal" in2="BackgroundImageFix" result="effect1_dropShadow_2226_12199"/>
<feBlend mode="normal" in="SourceGraphic" in2="effect1_dropShadow_2226_12199" result="shape"/>
</filter>
<linearGradient id="paint0_linear_2226_12199" x1="189.5" y1="71" x2="189.5" y2="269" gradientUnits="userSpaceOnUse">
<stop stop-color="#FFCFC8"/>
<stop offset="1" stop-color="#F8F8F8"/>
</linearGradient>
<linearGradient id="paint1_linear_2226_12199" x1="189.5" y1="95" x2="321.5" y2="204" gradientUnits="userSpaceOnUse">
<stop stop-color="#FF9370"/>
<stop offset="0.304184" stop-color="#FFEBE4"/>
<stop offset="0.5" stop-color="white"/>
<stop offset="0.766012" stop-color="#FFFBFA"/>
<stop offset="1" stop-color="#FF9370"/>
</linearGradient>
<linearGradient id="paint2_linear_2226_12199" x1="166.5" y1="129" x2="298.5" y2="238" gradientUnits="userSpaceOnUse">
<stop stop-color="#FF9370"/>
<stop offset="0.304184" stop-color="#FFEBE4"/>
<stop offset="0.5" stop-color="white"/>
<stop offset="0.766012" stop-color="#FFFBFA"/>
<stop offset="1" stop-color="#FF9370"/>
</linearGradient>
<linearGradient id="paint3_linear_2226_12199" x1="146.5" y1="163" x2="278.5" y2="272" gradientUnits="userSpaceOnUse">
<stop stop-color="#FF9370"/>
<stop offset="0.304184" stop-color="#FFEBE4"/>
<stop offset="0.5" stop-color="white"/>
<stop offset="0.766012" stop-color="#FFFBFA"/>
<stop offset="1" stop-color="#FF9370"/>
</linearGradient>
<clipPath id="clip0_2226_12199">
<rect x="66" y="71" width="247" height="198" rx="7" fill="white"/>
</clipPath>
</defs>
</svg>
