<svg width="507" height="188" viewBox="0 0 507 188" fill="none" xmlns="http://www.w3.org/2000/svg">
<path d="M161.73 93.152C158.658 93.152 156.226 92.2987 154.434 90.592C152.727 88.8853 151.874 86.4107 151.874 83.168V75.872H123.202C120.045 75.872 117.527 75.1893 115.65 73.824C113.773 72.3733 112.834 70.1973 112.834 67.296C112.834 65.5893 113.218 63.84 113.986 62.048C114.754 60.256 116.119 58.0373 118.082 55.392L151.234 7.13599C152.685 5.00266 154.306 3.38133 156.098 2.272C157.89 1.16266 159.938 0.607994 162.242 0.607994C164.973 0.607994 167.149 1.46133 168.77 3.168C170.477 4.78933 171.33 7.264 171.33 10.592V60.256H176.066C178.882 60.256 181.015 60.9387 182.466 62.304C183.917 63.584 184.642 65.504 184.642 68.064C184.642 70.5387 183.917 72.4587 182.466 73.824C181.101 75.1893 178.967 75.872 176.066 75.872H171.33V83.168C171.33 86.4107 170.477 88.8853 168.77 90.592C167.149 92.2987 164.802 93.152 161.73 93.152ZM151.874 60.256V25.056H155.586L128.322 65.12V60.256H151.874ZM381.48 93.152C378.408 93.152 375.976 92.2987 374.184 90.592C372.477 88.8853 371.624 86.4107 371.624 83.168V75.872H342.952C339.795 75.872 337.277 75.1893 335.4 73.824C333.523 72.3733 332.584 70.1973 332.584 67.296C332.584 65.5893 332.968 63.84 333.736 62.048C334.504 60.256 335.869 58.0373 337.832 55.392L370.984 7.13599C372.435 5.00266 374.056 3.38133 375.848 2.272C377.64 1.16266 379.688 0.607994 381.992 0.607994C384.723 0.607994 386.899 1.46133 388.52 3.168C390.227 4.78933 391.08 7.264 391.08 10.592V60.256H395.816C398.632 60.256 400.765 60.9387 402.216 62.304C403.667 63.584 404.392 65.504 404.392 68.064C404.392 70.5387 403.667 72.4587 402.216 73.824C400.851 75.1893 398.717 75.872 395.816 75.872H391.08V83.168C391.08 86.4107 390.227 88.8853 388.52 90.592C386.899 92.2987 384.552 93.152 381.48 93.152ZM371.624 60.256V25.056H375.336L348.072 65.12V60.256H371.624Z" fill="#FF7036"/>
<path d="M23.692 170.448C22.8387 170.448 22.1773 170.213 21.708 169.744C21.2813 169.232 21.068 168.549 21.068 167.696V127.568C21.068 126.672 21.3027 126.011 21.772 125.584C22.2413 125.115 22.9027 124.88 23.756 124.88H38.924C43.7453 124.88 47.4573 126.075 50.06 128.464C52.6627 130.811 53.964 134.139 53.964 138.448C53.964 142.715 52.6627 146.043 50.06 148.432C47.4573 150.821 43.7453 152.016 38.924 152.016H26.316V167.696C26.316 168.549 26.1027 169.232 25.676 169.744C25.2493 170.213 24.588 170.448 23.692 170.448ZM26.316 147.6H38.284C41.74 147.6 44.3427 146.832 46.092 145.296C47.884 143.717 48.78 141.435 48.78 138.448C48.78 135.419 47.884 133.136 46.092 131.6C44.3427 130.021 41.74 129.232 38.284 129.232H26.316V147.6ZM69.0935 170.576C66.9602 170.576 65.0402 170.171 63.3335 169.36C61.6695 168.507 60.3468 167.355 59.3655 165.904C58.3842 164.453 57.8935 162.832 57.8935 161.04C57.8935 158.736 58.4695 156.923 59.6215 155.6C60.8162 154.277 62.7575 153.339 65.4455 152.784C68.1762 152.229 71.8882 151.952 76.5815 151.952H79.4615V155.344H76.6455C73.1895 155.344 70.4588 155.515 68.4535 155.856C66.4908 156.155 65.1042 156.688 64.2935 157.456C63.5255 158.224 63.1415 159.312 63.1415 160.72C63.1415 162.469 63.7388 163.899 64.9335 165.008C66.1708 166.117 67.8348 166.672 69.9255 166.672C71.6322 166.672 73.1255 166.267 74.4055 165.456C75.7282 164.645 76.7522 163.536 77.4775 162.128C78.2455 160.72 78.6295 159.099 78.6295 157.264V149.968C78.6295 147.323 78.0962 145.424 77.0295 144.272C75.9628 143.077 74.2135 142.48 71.7815 142.48C70.2882 142.48 68.7948 142.672 67.3015 143.056C65.8082 143.44 64.2295 144.059 62.5655 144.912C61.9682 145.211 61.4562 145.317 61.0295 145.232C60.6028 145.104 60.2615 144.869 60.0055 144.528C59.7495 144.187 59.6002 143.803 59.5575 143.376C59.5148 142.907 59.6002 142.459 59.8135 142.032C60.0695 141.605 60.4535 141.264 60.9655 141.008C62.8428 140.069 64.6988 139.387 66.5335 138.96C68.3682 138.533 70.1175 138.32 71.7815 138.32C74.4695 138.32 76.6882 138.768 78.4375 139.664C80.1868 140.517 81.4882 141.84 82.3415 143.632C83.1948 145.381 83.6215 147.643 83.6215 150.416V167.76C83.6215 168.613 83.4082 169.275 82.9815 169.744C82.5975 170.213 82.0215 170.448 81.2535 170.448C80.4428 170.448 79.8242 170.213 79.3975 169.744C78.9708 169.275 78.7575 168.613 78.7575 167.76V162.768H79.3335C78.9922 164.389 78.3308 165.776 77.3495 166.928C76.4108 168.08 75.2375 168.976 73.8295 169.616C72.4215 170.256 70.8428 170.576 69.0935 170.576ZM106.999 182.096C104.738 182.096 102.519 181.819 100.343 181.264C98.2097 180.752 96.2683 179.92 94.519 178.768C94.007 178.469 93.6657 178.107 93.495 177.68C93.367 177.253 93.3457 176.827 93.431 176.4C93.5163 176.016 93.7083 175.653 94.007 175.312C94.3057 175.013 94.647 174.821 95.031 174.736C95.4577 174.651 95.8843 174.715 96.311 174.928C98.1883 176.08 99.9803 176.869 101.687 177.296C103.394 177.723 105.079 177.936 106.743 177.936C109.772 177.936 112.055 177.125 113.591 175.504C115.17 173.883 115.959 171.536 115.959 168.464V161.232H116.599C115.959 163.707 114.594 165.669 112.503 167.12C110.455 168.571 108.044 169.296 105.271 169.296C102.412 169.296 99.9377 168.656 97.847 167.376C95.7563 166.053 94.135 164.219 92.983 161.872C91.8737 159.525 91.319 156.816 91.319 153.744C91.319 151.44 91.639 149.349 92.279 147.472C92.919 145.552 93.8363 143.931 95.031 142.608C96.2683 141.243 97.7403 140.197 99.447 139.472C101.196 138.704 103.138 138.32 105.271 138.32C108.087 138.32 110.519 139.045 112.567 140.496C114.615 141.904 115.938 143.824 116.535 146.256L115.895 147.024V141.072C115.895 140.219 116.108 139.579 116.535 139.152C117.004 138.683 117.644 138.448 118.455 138.448C119.308 138.448 119.948 138.683 120.375 139.152C120.802 139.579 121.015 140.219 121.015 141.072V167.76C121.015 172.496 119.82 176.059 117.431 178.448C115.084 180.88 111.607 182.096 106.999 182.096ZM106.231 165.072C108.236 165.072 109.964 164.624 111.415 163.728C112.866 162.789 113.975 161.467 114.743 159.76C115.554 158.053 115.959 156.048 115.959 153.744C115.959 150.288 115.084 147.557 113.335 145.552C111.586 143.504 109.218 142.48 106.231 142.48C104.268 142.48 102.562 142.949 101.111 143.888C99.6603 144.784 98.5297 146.085 97.719 147.792C96.951 149.456 96.567 151.44 96.567 153.744C96.567 157.2 97.4417 159.952 99.191 162C100.94 164.048 103.287 165.072 106.231 165.072ZM144.755 170.576C141.47 170.576 138.632 169.936 136.243 168.656C133.896 167.333 132.062 165.477 130.739 163.088C129.459 160.699 128.819 157.84 128.819 154.512C128.819 151.269 129.459 148.453 130.739 146.064C132.019 143.632 133.768 141.733 135.987 140.368C138.248 139.003 140.851 138.32 143.795 138.32C145.886 138.32 147.763 138.683 149.427 139.408C151.091 140.091 152.499 141.093 153.651 142.416C154.846 143.739 155.742 145.339 156.339 147.216C156.979 149.093 157.299 151.205 157.299 153.552C157.299 154.235 157.107 154.747 156.723 155.088C156.339 155.387 155.784 155.536 155.059 155.536H132.787V152.144H153.843L152.819 152.976C152.819 150.672 152.478 148.731 151.795 147.152C151.112 145.531 150.11 144.293 148.787 143.44C147.507 142.587 145.886 142.16 143.923 142.16C141.747 142.16 139.891 142.672 138.355 143.696C136.862 144.677 135.731 146.064 134.963 147.856C134.195 149.605 133.811 151.653 133.811 154V154.384C133.811 158.309 134.75 161.296 136.627 163.344C138.547 165.392 141.256 166.416 144.755 166.416C146.206 166.416 147.635 166.224 149.043 165.84C150.494 165.456 151.902 164.816 153.267 163.92C153.864 163.536 154.398 163.365 154.867 163.408C155.379 163.408 155.784 163.557 156.083 163.856C156.382 164.112 156.574 164.453 156.659 164.88C156.787 165.264 156.744 165.691 156.531 166.16C156.36 166.629 155.998 167.035 155.443 167.376C154.035 168.4 152.371 169.189 150.451 169.744C148.531 170.299 146.632 170.576 144.755 170.576ZM184.502 170.448C183.691 170.448 183.072 170.235 182.646 169.808C182.219 169.339 182.006 168.677 182.006 167.824V127.12C182.006 126.267 182.219 125.605 182.646 125.136C183.072 124.667 183.627 124.432 184.31 124.432C184.992 124.432 185.483 124.56 185.782 124.816C186.123 125.029 186.507 125.435 186.934 126.032L214.838 163.216H213.302V126.992C213.302 126.181 213.515 125.563 213.942 125.136C214.368 124.667 214.987 124.432 215.798 124.432C216.566 124.432 217.142 124.667 217.526 125.136C217.952 125.563 218.166 126.181 218.166 126.992V167.888C218.166 168.699 217.974 169.339 217.59 169.808C217.248 170.235 216.736 170.448 216.054 170.448C215.414 170.448 214.902 170.32 214.518 170.064C214.134 169.808 213.728 169.403 213.302 168.848L185.462 131.664H186.934V167.824C186.934 168.677 186.72 169.339 186.294 169.808C185.867 170.235 185.27 170.448 184.502 170.448ZM241.605 170.576C238.575 170.576 235.951 169.915 233.733 168.592C231.514 167.269 229.786 165.413 228.549 163.024C227.354 160.592 226.757 157.733 226.757 154.448C226.757 151.973 227.098 149.755 227.781 147.792C228.463 145.787 229.466 144.08 230.789 142.672C232.111 141.264 233.669 140.197 235.461 139.472C237.295 138.704 239.343 138.32 241.605 138.32C244.634 138.32 247.258 138.981 249.477 140.304C251.695 141.627 253.402 143.504 254.597 145.936C255.834 148.325 256.453 151.163 256.453 154.448C256.453 156.923 256.111 159.141 255.429 161.104C254.746 163.067 253.743 164.773 252.421 166.224C251.098 167.632 249.519 168.72 247.685 169.488C245.893 170.213 243.866 170.576 241.605 170.576ZM241.605 166.416C243.525 166.416 245.21 165.947 246.661 165.008C248.111 164.069 249.221 162.704 249.989 160.912C250.799 159.12 251.205 156.965 251.205 154.448C251.205 150.565 250.33 147.6 248.581 145.552C246.874 143.504 244.549 142.48 241.605 142.48C239.642 142.48 237.935 142.949 236.485 143.888C235.077 144.784 233.967 146.128 233.157 147.92C232.389 149.669 232.005 151.845 232.005 154.448C232.005 158.288 232.879 161.253 234.629 163.344C236.378 165.392 238.703 166.416 241.605 166.416ZM276.407 170.576C273.975 170.576 271.927 170.149 270.263 169.296C268.641 168.4 267.425 167.12 266.615 165.456C265.804 163.749 265.399 161.68 265.399 159.248V142.928H261.111C260.385 142.928 259.831 142.757 259.447 142.416C259.062 142.032 258.87 141.52 258.87 140.88C258.87 140.24 259.062 139.749 259.447 139.408C259.831 139.067 260.385 138.896 261.111 138.896H265.399V131.536C265.399 130.683 265.633 130.043 266.103 129.616C266.572 129.147 267.212 128.912 268.023 128.912C268.833 128.912 269.452 129.147 269.879 129.616C270.348 130.043 270.583 130.683 270.583 131.536V138.896H278.647C279.372 138.896 279.927 139.067 280.311 139.408C280.695 139.749 280.887 140.24 280.887 140.88C280.887 141.52 280.695 142.032 280.311 142.416C279.927 142.757 279.372 142.928 278.647 142.928H270.583V158.736C270.583 161.168 271.095 163.024 272.119 164.304C273.143 165.541 274.807 166.16 277.111 166.16C277.921 166.16 278.604 166.075 279.159 165.904C279.756 165.733 280.247 165.648 280.631 165.648C281.015 165.605 281.335 165.733 281.591 166.032C281.847 166.331 281.975 166.843 281.975 167.568C281.975 168.08 281.868 168.549 281.655 168.976C281.484 169.403 281.164 169.701 280.695 169.872C280.183 170.043 279.5 170.192 278.647 170.32C277.836 170.491 277.089 170.576 276.407 170.576ZM306.322 170.448C305.426 170.448 304.722 170.213 304.21 169.744C303.74 169.232 303.506 168.507 303.506 167.568V127.76C303.506 126.821 303.74 126.117 304.21 125.648C304.722 125.136 305.447 124.88 306.385 124.88H329.618C330.343 124.88 330.898 125.072 331.282 125.456C331.666 125.84 331.858 126.373 331.858 127.056C331.858 127.781 331.666 128.336 331.282 128.72C330.898 129.104 330.343 129.296 329.618 129.296H308.754V145.04H328.274C328.999 145.04 329.554 145.232 329.938 145.616C330.364 146 330.578 146.533 330.578 147.216C330.578 147.941 330.364 148.496 329.938 148.88C329.554 149.264 328.999 149.456 328.274 149.456H308.754V167.568C308.754 169.488 307.943 170.448 306.322 170.448ZM349.605 170.576C346.575 170.576 343.951 169.915 341.733 168.592C339.514 167.269 337.786 165.413 336.549 163.024C335.354 160.592 334.757 157.733 334.757 154.448C334.757 151.973 335.098 149.755 335.781 147.792C336.463 145.787 337.466 144.08 338.789 142.672C340.111 141.264 341.669 140.197 343.461 139.472C345.295 138.704 347.343 138.32 349.605 138.32C352.634 138.32 355.258 138.981 357.477 140.304C359.695 141.627 361.402 143.504 362.597 145.936C363.834 148.325 364.453 151.163 364.453 154.448C364.453 156.923 364.111 159.141 363.429 161.104C362.746 163.067 361.743 164.773 360.421 166.224C359.098 167.632 357.519 168.72 355.685 169.488C353.893 170.213 351.866 170.576 349.605 170.576ZM349.605 166.416C351.525 166.416 353.21 165.947 354.661 165.008C356.111 164.069 357.221 162.704 357.989 160.912C358.799 159.12 359.205 156.965 359.205 154.448C359.205 150.565 358.33 147.6 356.581 145.552C354.874 143.504 352.549 142.48 349.605 142.48C347.642 142.48 345.935 142.949 344.485 143.888C343.077 144.784 341.967 146.128 341.157 147.92C340.389 149.669 340.005 151.845 340.005 154.448C340.005 158.288 340.879 161.253 342.629 163.344C344.378 165.392 346.703 166.416 349.605 166.416ZM383.247 170.576C380.73 170.576 378.639 170.128 376.975 169.232C375.354 168.293 374.116 166.907 373.263 165.072C372.452 163.237 372.047 160.955 372.047 158.224V141.072C372.047 140.176 372.26 139.515 372.687 139.088C373.156 138.661 373.796 138.448 374.607 138.448C375.46 138.448 376.1 138.661 376.527 139.088C376.996 139.515 377.231 140.176 377.231 141.072V158.16C377.231 160.891 377.786 162.939 378.895 164.304C380.047 165.627 381.839 166.288 384.271 166.288C386.916 166.288 389.071 165.392 390.735 163.6C392.399 161.808 393.231 159.461 393.231 156.56V141.072C393.231 140.176 393.444 139.515 393.871 139.088C394.34 138.661 395.002 138.448 395.855 138.448C396.666 138.448 397.284 138.661 397.711 139.088C398.18 139.515 398.415 140.176 398.415 141.072V167.76C398.415 169.552 397.583 170.448 395.919 170.448C395.108 170.448 394.468 170.213 393.999 169.744C393.572 169.275 393.359 168.613 393.359 167.76V161.936L394.191 162.832C393.338 165.349 391.93 167.269 389.967 168.592C388.047 169.915 385.807 170.576 383.247 170.576ZM410.674 170.448C409.821 170.448 409.181 170.213 408.754 169.744C408.327 169.275 408.114 168.613 408.114 167.76V141.072C408.114 140.219 408.327 139.579 408.754 139.152C409.181 138.683 409.799 138.448 410.61 138.448C411.421 138.448 412.039 138.683 412.466 139.152C412.935 139.579 413.17 140.219 413.17 141.072V146.576L412.466 145.808C413.362 143.333 414.813 141.477 416.818 140.24C418.866 138.96 421.213 138.32 423.858 138.32C426.333 138.32 428.381 138.768 430.002 139.664C431.666 140.56 432.903 141.925 433.714 143.76C434.525 145.552 434.93 147.835 434.93 150.608V167.76C434.93 168.613 434.695 169.275 434.226 169.744C433.799 170.213 433.181 170.448 432.37 170.448C431.517 170.448 430.855 170.213 430.386 169.744C429.959 169.275 429.746 168.613 429.746 167.76V150.928C429.746 148.027 429.17 145.915 428.018 144.592C426.909 143.227 425.117 142.544 422.642 142.544C419.783 142.544 417.501 143.44 415.794 145.232C414.13 146.981 413.298 149.328 413.298 152.272V167.76C413.298 169.552 412.423 170.448 410.674 170.448ZM456.329 170.576C453.556 170.576 451.124 169.915 449.033 168.592C446.985 167.269 445.385 165.413 444.233 163.024C443.124 160.592 442.569 157.733 442.569 154.448C442.569 151.12 443.124 148.261 444.233 145.872C445.385 143.44 446.985 141.584 449.033 140.304C451.124 138.981 453.556 138.32 456.329 138.32C459.145 138.32 461.556 139.024 463.561 140.432C465.566 141.84 466.91 143.739 467.593 146.128H466.889V127.056C466.889 126.203 467.102 125.563 467.529 125.136C467.998 124.667 468.66 124.432 469.513 124.432C470.324 124.432 470.942 124.667 471.369 125.136C471.838 125.563 472.073 126.203 472.073 127.056V167.76C472.073 168.613 471.86 169.275 471.433 169.744C471.006 170.213 470.366 170.448 469.513 170.448C468.702 170.448 468.062 170.213 467.593 169.744C467.166 169.275 466.953 168.613 466.953 167.76V161.68L467.657 162.576C466.974 165.008 465.609 166.949 463.561 168.4C461.556 169.851 459.145 170.576 456.329 170.576ZM457.417 166.416C459.337 166.416 461.022 165.947 462.473 165.008C463.924 164.069 465.033 162.704 465.801 160.912C466.612 159.12 467.017 156.965 467.017 154.448C467.017 150.565 466.142 147.6 464.393 145.552C462.686 143.504 460.361 142.48 457.417 142.48C455.454 142.48 453.748 142.949 452.297 143.888C450.889 144.784 449.78 146.128 448.969 147.92C448.201 149.669 447.817 151.845 447.817 154.448C447.817 158.288 448.692 161.253 450.441 163.344C452.19 165.392 454.516 166.416 457.417 166.416ZM484.298 158.544C483.786 158.544 483.359 158.373 483.018 158.032C482.719 157.691 482.548 157.179 482.506 156.496L481.226 127.824C481.183 126.8 481.418 125.989 481.93 125.392C482.484 124.752 483.274 124.432 484.298 124.432C485.279 124.432 486.026 124.752 486.538 125.392C487.05 125.989 487.284 126.8 487.242 127.824L485.962 156.496C485.962 157.179 485.812 157.691 485.514 158.032C485.215 158.373 484.81 158.544 484.298 158.544ZM484.298 170.256C483.231 170.256 482.378 169.936 481.738 169.296C481.098 168.613 480.778 167.76 480.778 166.736C480.778 165.712 481.098 164.88 481.738 164.24C482.378 163.557 483.231 163.216 484.298 163.216C485.364 163.216 486.196 163.557 486.794 164.24C487.434 164.88 487.754 165.712 487.754 166.736C487.754 167.76 487.434 168.613 486.794 169.296C486.196 169.936 485.364 170.256 484.298 170.256Z" fill="#FF7036"/>
<path d="M225.314 14.8242C222.639 17.1407 220.853 19.6396 219.51 22.3207C217.258 26.8148 219.234 34.1178 220.84 36.2654C222.15 38.0172 223.523 39.4801 225.129 40.7375C225.947 41.3776 226.382 42.3489 227.097 42.9709C229.057 44.6735 226.569 48.4137 226.564 54.7492C226.561 58.1897 228.167 60.9293 228.977 64.0501C230.757 70.9099 229.787 73.2626 229.159 75.941C228.914 76.9864 229.068 78.6034 229.422 79.9547C229.776 81.306 230.484 82.3677 231.91 82.9147C233.336 83.4616 235.46 83.4616 236.819 83.1962C238.832 82.8031 239.61 81.3221 240.5 80.6947C241.539 79.9628 242.651 81.8476 243.184 82.7404C244.869 85.5595 251.043 82.046 253.987 80.7805C255.223 80.2488 257.445 81.6599 263.052 82.0246C277.656 82.9745 287.689 82.0353 289.115 81.2336C291.888 79.6753 293.941 78.1101 296.089 76.9411C298.527 75.6139 300.912 73.284 302.703 71.1364C304.65 68.8024 306.274 66.8492 307.355 64.7016C308.372 62.6794 308.784 60.0606 309.055 54.6152C309.361 48.4586 309.149 39.1476 307.899 36.8177C306.761 34.6943 304.682 34.4878 303.612 34.3966C302.46 34.2984 301.464 35.7318 300.572 36.8016C296.561 41.6071 299.143 53.422 298.333 55.7466C297.321 58.6509 296.461 60.9293 295.298 63.1653C292.885 65.4068 291.099 65.943 289.673 66.2996C288.954 66.4792 288.246 66.6562 286.981 67.3747" stroke="#FF7036" stroke-width="2" stroke-linecap="round"/>
<path d="M225.314 14.287C225.314 12.5121 226.022 8.93543 227.454 6.25428C228.205 4.84755 229.063 3.74472 230.132 3.38545C232.632 2.54607 235.31 6.06123 236.75 7.66724C237.443 8.44033 238.538 9.0963 239.428 10.2572C241.969 13.5717 249.252 10.7157 255.142 10.7103C256.41 10.8873 256.941 11.2412 257.48 11.512C258.019 11.7828 258.55 11.9598 259.633 12.1421" stroke="#FF7036" stroke-width="2" stroke-linecap="round"/>
<path d="M239.793 11.0685C242.823 10.5322 245.681 9.8244 252.011 9.63672C255.875 10.8861 257.483 12.1356 258.553 13.0284C259.092 13.3903 259.623 13.5673 260.706 14.2858" stroke="#FF7036" stroke-width="2" stroke-linecap="round"/>
<path d="M259.096 12.6801L264.458 10.5352" stroke="#FF7036" stroke-width="2" stroke-linecap="round"/>
<path d="M251.59 10.5352H260.706" stroke="#FF7036" stroke-width="2" stroke-linecap="round"/>
<path d="M240.648 10.4548C242.013 10.0515 242.508 9.95839 243.045 9.85757C243.408 9.78922 243.628 9.77212 244.37 9.67899C244.831 9.62115 245.164 9.63242 246.664 9.58586C248.071 9.54217 250.792 9.57002 252.223 9.58539C253.829 9.60262 254.135 9.74046 254.516 9.77166C255.046 9.81507 255.961 10.0962 256.48 10.2294C256.74 10.296 257.07 10.4231 257.334 10.5165C257.695 10.6444 258.001 10.7184 258.667 10.9428C258.975 11.0466 259.212 11.1989 259.468 11.2618C259.809 11.3453 260.174 11.4941 260.708 11.6029C261.434 11.7505 261.665 11.8825 261.758 11.8983C261.792 11.9042 261.79 11.822 261.759 11.7519C261.559 11.2955 260.86 11.0452 260.541 10.8976C260.317 10.7938 260.022 10.7193 259.788 10.595C259.555 10.4712 259.061 10.2546 258.763 10.1214C258.557 10.0291 258.314 9.95839 258.05 9.88854C257.705 9.79738 257.275 9.69482 256.932 9.64779C256.42 9.57763 255.676 9.47782 255.364 9.42264C255.069 9.37044 254.513 9.33719 253.961 9.25989C253.443 9.18744 252.976 9.15093 252.564 9.10459C252.142 9.05712 251.809 9.04243 251.202 9.01914C250.655 8.99823 249.626 9.01123 249.072 9.01891C248.363 9.02876 248.085 9.11926 247.79 9.15861C247.51 9.19582 247.138 9.22823 246.889 9.29039C246.641 9.35256 246.27 9.38376 245.989 9.43009C245.664 9.48362 245.353 9.53836 244.733 9.57771C244.399 9.59896 244.188 9.74046 243.963 9.84896C243.769 9.97329 243.399 10.2201 242.862 10.5314C242.775 10.594 242.76 10.6401 242.744 10.6876" stroke="#FF7036" stroke-width="2" stroke-linecap="round"/>
<path d="M258.623 10.7795C260.237 10.2677 260.485 10.1434 260.679 10.0272C260.918 9.88436 261.213 9.67868 261.548 9.515C261.925 9.33053 262.44 9.02675 262.82 8.83257C263.752 8.35615 263.961 8.21929 264.481 8.00183C264.872 7.83802 265.357 7.56736 265.685 7.45816C266.035 7.34114 266.399 7.0393 266.67 6.94593C266.934 6.85524 267.128 6.6826 267.5 6.53475C267.847 6.39722 268.275 6.2635 268.734 6.12334C268.988 6.04596 269.193 5.9217 269.426 5.83602C269.736 5.72162 270.108 5.59574 270.736 5.44044C271.016 5.37099 271.287 5.28467 271.521 5.19969C272.017 5.01965 272.918 5.17571 273.151 5.27653C273.384 5.37751 273.601 5.53241 273.795 5.70307C273.957 5.84455 274.159 6.04371 274.369 6.32357C274.691 6.7514 275.107 7.2386 275.254 7.59623C275.381 7.90304 275.65 8.3087 275.759 8.64421C275.846 8.90958 275.914 9.13293 276 9.47426C276.087 9.82039 276.132 10.2487 276.171 10.5844C276.195 10.7913 276.209 10.996 276.256 11.3891C276.358 12.2526 276.287 12.9514 276.31 13.1761C276.329 13.3539 276.334 13.4799 276.357 13.9262C276.417 15.0779 276.38 15.9321 276.419 16.1023C276.44 16.1961 276.473 16.3032 276.489 16.8427C276.505 17.3822 276.505 18.3503 276.497 18.8874C276.486 19.643 276.397 19.859 276.326 20.0763C276.22 20.4038 276.194 20.6656 276.132 20.8837C276.117 20.9305 276.101 20.9766 276.093 21.0465C276.085 21.1163 276.085 21.2085 276.085 21.3035" stroke="#FF7036" stroke-width="2" stroke-linecap="round"/>
<path d="M276.34 19.4336C276.451 19.7335 276.901 19.9589 277.502 20.3896C278.336 20.9872 278.705 21.535 279.138 21.9499C279.575 22.3691 279.796 22.8878 280.059 23.3777C280.321 23.8671 280.547 24.3918 280.642 24.9368C280.731 25.4457 280.885 26.0445 281.056 26.9272C281.188 27.6135 281.262 28.2992 281.394 29.2733C281.584 30.6766 281.45 31.758 281.507 32.3927C281.726 34.8671 281.113 35.927 280.832 36.6417C280.463 37.5789 280.25 38.1817 279.78 38.8221C279.347 39.4132 279.271 40.1749 278.953 40.645C278.599 41.1691 278.407 41.7149 278.07 42.2983C277.844 42.8062 277.469 43.5547 277.018 44.1213C276.905 44.2346 276.793 44.3462 276.565 44.6866" stroke="#FF7036" stroke-width="2" stroke-linecap="round"/>
<path d="M278.031 42.543L280.173 44.234" stroke="#FF7036" stroke-width="2" stroke-linecap="round"/>
<path d="M278.145 42.8828C280.923 45.248 281.45 45.9989 281.826 46.5073C282.206 47.0215 282.539 47.6899 282.897 48.5163C283.242 49.314 283.556 49.7192 284.061 50.5083C284.537 51.2519 284.832 52.1994 285.152 52.8014C285.528 53.5104 286.034 54.6751 286.355 55.4885C286.612 56.1402 286.9 57.0471 287.144 57.7612C287.461 58.6884 287.802 59.9016 288.046 60.786C288.239 61.4871 288.404 62.3795 288.591 63.2853C288.751 64.0623 288.742 64.8259 288.948 65.3529C289.004 65.5034 289.042 65.6895 289.061 65.8597C289.08 66.0299 289.08 66.1787 289.08 66.3321" stroke="#FF7036" stroke-width="2" stroke-linecap="round"/>
<path d="M281.752 32.9631C283.24 32.8887 284.267 32.8131 285.369 32.7568C287.62 32.6415 289.712 32.9236 290.726 33.2427C291.478 33.4792 292.119 33.8627 292.779 34.2956C293.023 34.4647 293.324 34.653 293.662 34.8407C293.814 34.9168 293.925 34.954 294.04 34.9923" stroke="#FF7036" stroke-width="2" stroke-linecap="round"/>
<path d="M281.414 26.8747C285.432 25.461 287.725 24.6955 288.175 24.5833C289.237 24.3185 290.726 24.1329 291.465 24.0377C291.596 24.0191 291.745 23.9818 292.101 23.9627C292.457 23.9435 293.015 23.9435 293.815 24.0563" stroke="#FF7036" stroke-width="2" stroke-linecap="round"/>
<path d="M218.732 31.3834C216.14 30.557 215.542 30.4071 214.789 30.3501C214.411 30.3215 214.074 30.1816 212.714 30.0688C211.506 29.9687 209.233 30.0305 207.915 30.0863C205.748 30.1781 204.572 30.6303 203.535 31.0998C203.327 31.1951 203.141 31.2323 202.989 31.2701C202.837 31.3078 202.726 31.345 202.498 31.3834" stroke="#FF7036" stroke-width="2" stroke-linecap="round"/>
<path d="M217.829 24.2827C213.439 22.125 210.917 20.939 210.392 20.7518C209.298 20.3617 208.587 20.1115 207.929 19.8122C207.315 19.5322 206.67 19.5861 204.254 19.5664C203.626 19.6222 203.362 19.6977 203.063 19.7913C202.912 19.8477 202.763 19.9221 202.609 19.9988" stroke="#FF7036" stroke-width="2" stroke-linecap="round"/>
<path d="M251.279 39.1055C251.337 39.1055 251.395 39.1055 250.935 40.6012C250.476 42.0969 249.498 45.0884 248.49 48.1705" stroke="#FF7036" stroke-width="13" stroke-linecap="round"/>
<path d="M235.241 47.4727C235.068 48.6912 234.43 49.2142 233.937 49.562C233.55 49.8346 233.497 52.5613 233.555 56.4243C233.588 58.645 234.076 59.672 234.397 60.5428C234.775 62.2294 235.122 63.1586 235.442 65.6811C235.643 66.0698 236.046 65.8397 236.635 65.4283" stroke="#FF7036" stroke-width="13" stroke-linecap="round"/>
<path d="M236.286 46.4257C236.402 45.6779 236.517 44.93 236.461 44.5447C236.405 44.1595 236.175 44.1595 235.97 44.217C235.571 44.3292 235.3 44.7958 235.068 44.9439C233.621 45.8685 234.139 42.2454 233.5 41.4025C232.915 40.6312 232.106 40.0384 231.206 39.05C230.104 37.8408 229.376 36.7262 228.763 35.9975C228.233 35.367 227.689 34.7493 227.281 34.0511C226.918 33.4298 226.528 32.5423 226.176 31.6402C225.873 30.86 225.653 29.6973 225.479 28.6766C225.316 27.7166 225.419 26.556 225.536 25.8578C225.669 25.0611 226.406 24.464 226.871 23.7371C227.391 22.9256 227.8 22.1978 228.323 21.3262C228.918 20.3353 229.659 19.6422 230.589 18.5953C231.16 17.9519 231.576 17.2574 232.101 16.4738C232.55 15.8026 232.566 15.0504 232.626 11.4279C232.631 11.1175 232.8 13.0038 233.436 15.8209C233.578 16.4469 233.727 16.7832 234.132 16.9035C236.096 17.4876 237.095 16.4415 240.081 16.3526C242.37 16.2844 242.036 18.7636 242.994 19.0268C244.481 19.4355 245.697 18.4777 247.002 18.2144C247.545 18.1051 248.022 18.1273 248.486 17.9826C248.969 17.8319 251.718 17.6618 256.013 17.7481C258.71 17.8023 261.027 18.1848 263.205 18.1273C264.768 18.086 265.744 17.083 266.471 16.7335C267.51 16.2343 268.244 15.3991 268.652 14.7009C268.745 14.5412 268.711 14.3531 268.798 14.2354C268.884 14.1177 269.056 14.0602 269.174 13.9443C269.292 13.8284 269.349 13.6558 269.293 13.5381C269.236 13.4204 269.063 13.3629 268.888 13.4196C268.014 13.7022 267.205 14.4054 266.448 14.5527C265.619 14.7138 265.052 15.5106 264.791 15.7712C264.67 15.8916 264.702 16.0894 265.277 16.3509C268.384 17.7629 269.407 17.4875 269.726 17.5738C270.496 17.782 270.28 20.6637 270.598 22.1917C270.75 22.9219 271.323 23.4704 272.166 24.254C273.039 25.0656 273.707 26.026 274.085 27.187C274.402 28.1612 274.694 29.1046 274.957 30.3807C275.487 32.9469 274.698 33.8114 274.349 34.7423C274.032 35.5886 273.537 36.6565 272.985 37.59C272.828 37.8559 272.494 38.1103 272.173 38.3736C271.853 38.6368 271.507 38.8669 267.101 38.9855C262.695 39.104 254.239 39.104 249.278 39.2478C243.097 39.427 241.405 40.0332 240.621 40.1779C240.292 40.2387 240.125 40.3801 238.972 38.5409C237.819 36.7018 235.69 32.9049 234.536 30.7764C233.211 28.3323 233.149 27.6019 233.264 26.9351C233.322 26.5985 233.609 26.3259 234.044 26.1777C236.163 25.4555 239.288 26.8942 242.06 28.1755C242.889 28.5588 243.892 28.932 245.254 29.6843C246.905 30.5964 248.481 31.7788 251.14 32.3305C252.911 32.6979 255.64 32.5946 257.551 32.4229C260.54 32.1543 261.852 31.261 262.632 30.9133C265.002 29.858 267.02 29.9832 267.838 29.7209C267.987 29.6731 267.784 29.2894 267.379 29.0262C266.373 28.3711 263.732 27.9506 259.85 27.3125C257.815 26.9781 255.623 26.7896 253.864 26.671C252.105 26.5525 250.839 26.5525 248.979 26.3224C247.119 26.0923 244.703 25.632 242.682 25.1073C239.062 24.1676 237.277 23.242 238.05 23.4695C241.434 24.4652 244.068 26.3154 245.226 27.8469C245.997 28.8665 246.844 30.5864 247.519 31.9636C248.195 33.3408 248.597 34.3763 248.92 35.8301C249.643 39.0917 249.71 41.827 249.652 43.3924C249.556 45.9966 247.342 48.2701 245.098 50.0526C244.054 50.882 242.224 51.8211 240.54 53.3299C239.521 54.2428 239.424 55.3687 239.453 56.4417C239.477 57.3459 239.829 58.0446 240.321 58.5667C241.232 59.5323 242.674 59.2091 244.867 59.2963C246.599 59.3651 249.591 59.3259 251.132 58.952C252.985 58.5025 253.133 54.8736 253.773 51.4176C254.057 49.8847 253.259 49.1034 252.588 47.2485C252.349 46.5875 252.499 45.6308 252.671 45.358C252.957 44.9069 254.005 46.6506 255.249 49.0781C256.094 50.7276 257.126 53.3465 257.861 54.8814C258.597 56.4164 258.942 56.8191 259.35 56.9115C259.758 57.0039 260.218 56.7738 260.628 56.4539C261.451 55.8108 261.738 54.3384 261.652 52.6265C261.483 49.2696 258.252 46.6018 258.395 46.3403C258.477 46.1922 258.827 46.2514 259.061 46.3377C259.514 46.5043 260.969 48.6153 263.291 51.7497C264.819 53.8135 266.091 54.8475 267.048 55.4864C267.463 55.7633 267.833 55.7801 268.097 55.6947C268.609 55.5289 268.826 54.8544 269.029 54.2173C269.543 52.6058 267.909 49.4102 267.172 47.6207C267.071 47.3766 267.142 47.0707 267.401 47.0664C269.326 47.034 270.333 49.3265 271.005 50.2574C271.166 50.4806 271.323 50.7211 271.44 50.6383C271.862 50.3413 271.675 48.76 271.79 47.2782C271.83 46.763 272.135 46.7744 272.57 47.0908C274.765 48.6877 275.043 50.0831 275.682 50.9547C276.303 51.8017 276.497 52.3511 276.613 52.44C276.966 52.7087 276.382 51.4254 276.497 51.1055C276.546 50.9682 276.842 51.0733 277.075 51.2755C278.07 52.1368 278.296 53.1617 278.531 55.163C278.696 56.5689 279.227 57.2305 279.547 57.9574C279.934 58.8327 280.098 59.6711 280.246 61.2374C280.335 62.1886 280.565 62.9833 281.144 64.2602C281.275 64.5487 281.263 64.7265 281.292 64.6716C281.455 64.3587 281.437 63.515 281.552 63.1044C282.067 61.2666 282.366 65.4256 282.281 65.6871C281.858 66.9816 278.027 65.1414 276.385 64.4999C275.226 64.047 274.468 63.2796 273.252 63.046C272.562 62.9135 271.351 62.7009 268.628 62.6399C265.906 62.5788 261.707 62.6939 258.968 62.8682C255.066 63.1166 253.433 63.5097 252.305 63.6248C249.257 63.9354 247.335 64.7265 245.793 65.1066C245.221 65.2473 244.6 65.4273 243.961 65.3123C243.515 65.232 243.608 64.2123 243.608 63.5716C243.608 62.586 242.454 66.6372 241.23 67.9804C240.56 68.7143 239.661 69.0847 238.904 69.3201C238.059 69.5826 237.047 70.1307 236.231 71.0869C234.43 73.197 235.418 74.5481 235.154 75.9105C235.091 76.2391 234.895 76.4064 235.008 76.294C236.457 74.8451 238.717 73.3941 241.275 72.6636C242.065 72.4381 243.078 72.3446 249.273 71.996C254.77 71.6866 265.075 71.8774 270.811 71.935C277.412 72.0012 278.529 72.3411 279.137 72.5155C279.504 72.6208 280.032 72.5747 280.299 72.661C280.565 72.7473 280.565 72.9199 280.45 73.0376C279.743 73.7615 277.612 73.5022 276.501 73.7654C275.306 74.0484 273.889 74.1437 272.552 74.4331C271.869 74.5807 271.27 74.5499 268.736 74.637C266.432 74.7162 262.059 74.6667 261.072 74.6667C259.528 74.6667 265.8 74.4941 267.103 74.2326C268.694 74.1437 269.871 74.0861 271.601 73.999C273.043 73.9693 275.632 73.9693 278.299 73.9693" stroke="#FF7036" stroke-width="13" stroke-linecap="round"/>
<path d="M304.623 49.0416L304.1 47.4727" stroke="#FF7036" stroke-width="5" stroke-linecap="round"/>
<path d="M303.926 47.4733C302.997 42.9443 302.88 41.093 303.024 39.8065C303.051 39.5725 303.054 39.3427 302.939 39.3393C301.995 39.3107 301.778 40.7862 301.515 41.6299C301.125 42.8808 301.311 44.1559 301.311 44.7678C301.311 46.1845 301.775 41.2603 301.891 40.4166C302.083 39.0341 302.643 37.7738 303.4 37.1314C304.002 36.6206 305.083 38.0562 305.957 38.6385C306.371 38.9149 306.366 40.0279 306.453 41.5637C306.543 43.1754 306.889 46.2879 306.803 49.7745C306.774 50.9627 306.544 50.9599 306.426 50.8448C305.61 50.0469 304.804 47.9475 304.073 46.6636C303.817 46.2147 303.347 45.6185 302.883 44.8924C302.693 44.5942 302.42 44.5691 302.186 44.597C301.704 44.6545 301.255 45.031 300.849 45.4939C299.914 46.559 300.15 47.8743 300.177 50.2539C300.189 51.2868 300.844 52.3475 301.164 53.5704C301.461 54.7012 301.659 57.5599 301.457 59.6143C301.353 60.6729 300.092 61.2434 299.773 61.3611C298.682 61.7635 299.623 58.8673 299.915 58.1099C300.125 57.5648 298.236 61.5276 297.652 62.7522C296.933 64.2598 294.753 66.583 293.789 67.663C292.938 68.6154 291.555 69.435 290.679 69.7575C289.798 70.0821 287.783 70.7111 287.216 71.038C284.875 72.3886 289.803 69.0916 289.921 68.8301C289.964 68.7348 289.579 68.7412 289.315 68.8275C287.445 69.4406 285.974 72.4544 285.651 73.2711C285.523 73.5957 285.564 73.9693 285.592 74.2883C285.763 76.2511 291.249 74.3232 292.417 73.4803C293.385 72.7814 295.255 71.3108 296.6 69.8203C297.415 68.9181 298.284 68.0509 299.36 67.1174C300.924 65.7598 302.643 63.6334 302.966 62.788C303.333 61.8279 304.037 60.499 304.332 58.666C304.599 57.0033 304.738 55.6144 304.711 52.1645C304.703 51.163 304.044 50.5572 303.753 50.0333C303.535 49.6411 304.794 50.667 305.435 51.0165C306.144 51.4038 305.958 52.6997 306.307 53.7151C306.847 55.2878 306.541 56.7615 306.31 57.8719C306.123 58.7715 305.439 59.6727 305.118 60.3709C304.741 61.191 304.159 61.939 303.608 62.6659C303.018 63.4456 302.765 64.0326 302.648 64.2078C302.282 64.7562 303.633 62.9919 304.301 62.2066C304.463 62.0149 304.735 62.0017 304.939 62.0584C305.144 62.115 305.317 62.2876 305.348 62.5779C305.502 64.0007 304.567 64.9025 303.986 65.7454C303.45 66.5217 302.304 67.4582 301.459 68.1868C300.658 68.877 299.745 69.435 298.931 69.9885C298.267 70.4402 297.538 71.004 296.636 71.5287C295.94 71.9337 295.446 72.7472 294.602 73.4454C293.825 74.0875 292.772 75.0135 291.929 75.4223C290.965 75.89 289.868 76.5824 288.966 77.2518C288.22 77.8051 287.368 78.2106 286.207 78.6473C285.248 79.0079 284.29 79.2566 283.475 79.5774C283.243 79.6684 282.954 79.7796 282.921 79.7813C281.963 79.8317 285.67 79.0858 286.867 78.5349C288.13 77.9536 289.394 77.4575 290.209 77.1106C291.225 76.6783 292.068 76.5301 293.171 76.1231C294.642 75.58 295.206 74.8461 295.933 74.3214C296.698 73.7687 297.298 73.333 298.025 72.6374C298.743 71.9505 299.794 71.3038 300.15 70.6597C300.895 69.3107 297.193 71.7605 295.911 72.3707C294.33 73.1231 292.023 74.6613 290.392 75.6533C289.323 76.3036 288.013 77.1612 286.961 77.6885C285.983 78.1786 285.391 78.5 284.724 78.7354C283.863 79.0389 283.069 79.4309 276.325 79.4344C274.531 79.4353 273.384 79.0892 271.698 78.9707C267.834 78.699 265.229 78.7371 264.504 78.5628C263.057 78.2144 261.976 78.3292 259.803 77.9535C256.75 77.4256 255.815 77.3425 254.972 77.2545C254.587 77.2142 254.187 77.0514 254.212 77.0505C255.241 77.015 256.619 77.4575 258.181 77.5726C262.228 77.8705 264.632 78.385 265.803 78.6482C266.792 78.7354 267.833 78.8522 269.602 79.2862C270.554 79.3751 272.223 79.3751 273.942 79.3751" stroke="#FF7036" stroke-width="5" stroke-linecap="round"/>
<path d="M245.002 81.2915V81.1172" stroke="#FF7036" stroke-width="5" stroke-linecap="round"/>
<path d="M249.187 75.3633C248.842 76.3988 248.607 77.1048 248.433 77.3951C248.018 78.0891 246.635 78.034 245.588 78.326C244.785 78.5499 244.076 78.5587 243.727 78.7609C243.565 78.8548 243.609 79.1357 243.724 79.283C244.291 80.0099 245.463 80.5303 246.828 80.8833C248.153 81.2259 249.647 79.6657 250.462 79.2002C251.612 78.5435 253.019 78.7348 256.35 78.7043C257.088 78.733 257.318 78.7905 257.523 78.8202C257.727 78.8498 257.9 78.8498 258.078 78.8498" stroke="#FF7036" stroke-width="5" stroke-linecap="round"/>
<path d="M240.296 22.1954C239.951 23.5761 239.773 24.5174 240.032 24.8661C240.201 25.0947 240.808 24.9846 241.133 24.8983C241.457 24.812 241.572 24.6395 241.631 24.4355C241.69 24.2315 241.69 24.0014 241.604 23.7678C241.42 23.2697 240.995 22.952 240.618 22.7489C240.423 22.6434 240.184 22.6033 239.979 22.6025C239.775 22.6016 239.602 22.6591 239.456 22.8326C238.759 23.6579 238.786 24.7475 238.813 25.5922C238.84 26.4217 240.235 26.6686 240.757 26.6704C241.983 26.6745 241.516 24.8138 241.834 23.9422C242.001 23.4856 242.039 23.0112 241.982 22.5763C241.954 22.3654 241.809 22.1989 241.548 22.11C241.288 22.0211 240.885 22.0211 240.62 22.1074C240.355 22.1937 240.24 22.3662 240.123 22.5414C240.006 22.7166 239.891 22.8892 239.773 23.067" stroke="white" stroke-width="5" stroke-linecap="round"/>
<path d="M259.71 23.1524C260.055 24.5331 260.233 25.4745 259.974 25.8231C259.804 26.0517 259.197 25.9417 258.873 25.8554C258.549 25.7691 258.434 25.5965 258.375 25.3925C258.315 25.1886 258.315 24.9585 258.402 24.7249C258.586 24.2267 259.011 23.909 259.387 23.7059C259.583 23.6005 259.822 23.5604 260.026 23.5595C260.231 23.5586 260.404 23.6161 260.55 23.7896C261.247 24.615 261.22 25.7046 261.193 26.5492C261.166 27.3787 259.771 27.6257 259.249 27.6274C258.023 27.6315 258.49 25.7708 258.172 24.8992C258.005 24.4426 257.967 23.9683 258.024 23.5333C258.052 23.3224 258.197 23.1559 258.457 23.067C258.718 22.9781 259.121 22.9781 259.386 23.0644C259.651 23.1507 259.766 23.3233 259.883 23.4985C259.999 23.6737 260.114 23.8463 260.233 24.0241" stroke="white" stroke-width="5" stroke-linecap="round"/>
</svg>
